<svg xmlns="http://www.w3.org/2000/svg" width="240" height="158" viewBox="0 0 240 158"><path d="M10.729 89.875L1.7 75.215h101.821v14.66z"/><path fill="#C6C6C6" d="M102.56 76.154v12.781H11.271l-7.87-12.781h99.159m1.921-1.879H0l10.186 16.541h94.296V74.275h-.001z"/><path d="M18.26 106.461l-6.433-13.246h91.739v13.246z"/><path fill="#C6C6C6" d="M102.649 94.111v11.453H18.838l-5.562-11.453h89.373m1.832-1.792H10.377l7.303 15.036h86.801V92.319z"/><path d="M25.02 123.752l-5.586-13.244h84.132v13.244z"/><path fill="#C6C6C6" d="M102.649 111.404v11.452H25.633l-4.83-11.452h81.846m1.832-1.793H18.065l6.342 15.037h80.075v-15.037h-.001z"/><path d="M229.271 89.875l9.028-14.66h-101.82v14.66z"/><path fill="#C6C6C6" d="M137.439 76.154h99.16l-7.871 12.781h-91.289V76.154m-1.919-1.879v16.541h94.295L240 74.275H135.52z"/><path d="M221.74 106.461l6.432-13.246h-91.738v13.246z"/><path fill="#C6C6C6" d="M137.352 94.111h89.371l-5.561 11.453h-83.811V94.111m-1.831-1.792v15.036h86.801l7.303-15.036H135.52z"/><path d="M214.98 123.752l5.586-13.244h-84.132v13.244z"/><path fill="#C6C6C6" d="M137.352 111.404h81.846l-4.83 11.452h-77.016v-11.452m-1.832-1.793v15.037h80.074l6.342-15.037H135.52z"/><path d="M188.371 41.604L165.594 8.569C162.007 3.481 156.297 0 149.979 0H89.445c-6.318 0-12.233 3.481-15.82 8.569L50.841 41.382C49.514 43.265 49 45.72 49 48.007v91.972c0 2.492 1.868 4.512 4.415 4.512l66.9 13.346 65.531-13.346c2.548 0 4.154-2.02 4.154-4.512V48.007c0-2.287-.302-4.52-1.629-6.403z"/><path fill="#C6C6C6" d="M119.864 147.861l-.027-.233-.042.228-60.099-10.789a1.134 1.134 0 0 1-.945-1.109v-86.23c0-2.03.614-3.993 1.774-5.676L81.053 14.29c1.939-2.75 5.132-4.391 8.544-4.391h60.518c3.412 0 6.605 1.64 8.541 4.388l20.531 29.765a9.96 9.96 0 0 1 1.773 5.676v86.23c0 .545-.396 1.012-.945 1.109l-60.099 10.789-.035-.189-.017.194zM89.597 10.65c-3.159 0-6.116 1.519-7.91 4.063L61.163 44.472a9.218 9.218 0 0 0-1.643 5.255v86.23c0 .182.132.338.314.37l60.022 10.775 60.022-10.775a.377.377 0 0 0 .314-.37v-86.23a9.21 9.21 0 0 0-1.643-5.255L158.022 14.71c-1.793-2.541-4.75-4.06-7.908-4.06H89.597z"/><path opacity=".2" fill="#FFF" d="M165.799 8.569C162.211 3.481 156.297 0 149.979 0H89.445c-6.318 0-12.233 3.481-15.82 8.569L50.841 41.382C49.514 43.265 49 45.72 49 48.007v1.764l.187.551s34.494-2.097 67.164 2.415S163.913 70 163.913 70H190V48.007c0-2.287-.302-4.742-1.629-6.625L165.799 8.569z"/><linearGradient id="a" gradientUnits="userSpaceOnUse" x1="120.179" y1="-.378" x2="120.179" y2="158.786"><stop offset=".066" stop-color="#c4c4c4"/><stop offset=".362" stop-color="#6c6966"/><stop offset=".678" stop-color="#c4c4c4"/><stop offset="1" stop-color="#6c6966"/></linearGradient><path fill="url(#a)" d="M214.264 69.749c-2.653-3.551-6.82-4.749-11.432-4.749H190V48.007c0-2.287-.302-4.52-1.629-6.403L165.594 8.569C162.007 3.481 156.297 0 149.979 0H89.445c-6.318 0-12.233 3.481-15.82 8.569L50.841 41.382C49.514 43.265 49 45.72 49 48.007V65H37.6c-4.612 0-8.778 1.198-11.431 4.749-2.677 3.584-3.399 8.102-1.977 12.462l11.58 35.267.241.062C39.079 125.418 44 127.564 49 127.895v12.084c0 2.492 1.868 4.512 4.415 4.512l66.9 13.346 65.531-13.346c2.548 0 4.154-2.02 4.154-4.512v-12.036c5-.072 10.902-1.92 14.207-10.415l.248-.076 11.683-35.24c1.422-4.361.802-8.879-1.874-12.463zM52 64.795V49.664c0-2.444.657-5.357 2.435-7.801l21.802-31.591C79.25 5.999 84.138 3 89.445 3h60.533c5.308 0 10.275 2.999 13.289 7.272l23.109 32.815c.978 1.387 1.623 3.235 1.623 4.919v91.971c0 .83-.818 1.504-1.666 1.504L120.281 153.7 53.41 141.482c-.848 0-1.41-.674-1.41-1.504V64.795z"/><path fill="#8B1416" d="M190.201 124.162H49.142c-5.104 0-8.177-3.084-9.993-7.75L27.425 80.666c-2.057-6.306 2.458-12.477 9.225-12.477h153.551v55.973z"/><linearGradient id="b" gradientUnits="userSpaceOnUse" x1="26.773" y1="96" x2="213.624" y2="96"><stop offset="0" stop-color="#8a0000"/><stop offset=".5" stop-color="#fa1442"/><stop offset="1" stop-color="#8a0000"/></linearGradient><path fill="url(#b)" d="M203.898 68h-167.4c-6.767 0-11.281 6.225-9.225 12.529l11.723 35.734C40.813 120.93 43.885 124 48.99 124h142.417c5.105 0 8.178-3.044 9.994-7.71l11.723-35.78c2.056-6.305-2.459-12.51-9.226-12.51z"/><path d="M63.243 133.796v-4.454h-1.666v-.906h4.46v.906h-1.661v4.454h-1.133zm4.659-5.36h1.133v2.238h.911c.067-.661.311-1.214.732-1.66.421-.445 1.034-.669 1.838-.669.773 0 1.388.238 1.845.716.456.479.686 1.16.686 2.049 0 .58-.1 1.075-.299 1.485-.199.411-.48.729-.844.954-.363.227-.816.338-1.357.338-.551 0-.989-.082-1.315-.248-.325-.166-.61-.434-.854-.805a2.708 2.708 0 0 1-.431-1.262h-.911v2.224h-1.133v-5.36zm3.178 2.687c0 .596.124 1.055.372 1.377.247.323.596.484 1.045.484.461 0 .809-.16 1.04-.48.23-.32.346-.802.346-1.443 0-.613-.134-1.063-.4-1.35-.267-.284-.608-.427-1.024-.427-.406 0-.737.144-.993.434-.258.288-.386.757-.386 1.405zm6.037 2.673v-5.36h1.134v2.11h2.22v-2.11h1.133v5.36h-1.133v-2.343h-2.22v2.343h-1.134zm6.803-5.36h1.061v3.568l2.274-3.568h1.13v5.36h-1.061v-3.499l-2.27 3.499H83.92v-5.36zm6.754 5.36v-5.36h1.134v2.11h2.22v-2.11h1.133v5.36h-1.133v-2.343h-2.22v2.343h-1.134zm6.845-5.36h3.802v.899h-2.668v4.461h-1.134v-5.36zm9.226 0h3.932v5.36h-1.133v-4.454h-1.689v2.29c0 .655-.022 1.112-.068 1.372a.969.969 0 0 1-.335.607c-.177.145-.455.218-.833.218-.133 0-.374-.013-.724-.036v-.838l.253.004c.237 0 .396-.031.478-.092.082-.061.123-.211.123-.449l-.004-.922v-3.06zm11.29 5.36h-1.233l-.49-1.218h-2.243l-.464 1.218h-1.202l2.186-5.36h1.198l2.248 5.36zm-2.086-2.12l-.774-1.99-.757 1.99h1.531zm3.84-3.24h4.196v.899h-3.063v1.243h1.516c.418 0 .766.049 1.041.146s.512.277.707.541.293.572.293.926c0 .363-.098.674-.295.932-.197.259-.42.436-.672.531-.252.094-.609.142-1.074.142h-2.649v-5.36zm1.132 4.46h1.104c.352 0 .6-.016.742-.049s.266-.107.373-.226a.621.621 0 0 0 .158-.431c0-.249-.092-.43-.277-.543s-.5-.17-.947-.17h-1.153v1.419zm5.38-1.748c0-.545.086-1.004.258-1.375.127-.272.301-.518.521-.734s.463-.378.727-.482c.35-.142.752-.212 1.209-.212.826 0 1.488.244 1.984.735.496.489.746 1.17.746 2.043 0 .865-.246 1.543-.74 2.031-.492.489-1.15.732-1.975.732-.836 0-1.498-.242-1.992-.729-.492-.485-.738-1.155-.738-2.009zm1.168-.036c0 .606.146 1.067.441 1.38.293.313.664.471 1.117.471.451 0 .822-.156 1.111-.467s.436-.777.436-1.398c0-.614-.141-1.072-.424-1.375-.281-.302-.656-.453-1.123-.453s-.844.152-1.129.459c-.287.304-.429.767-.429 1.383zm6.289 2.684v-5.36h1.818c.689 0 1.139.027 1.35.08.32.08.59.256.807.525s.326.617.326 1.043c0 .33-.063.606-.188.831a1.508 1.508 0 0 1-.477.528 1.676 1.676 0 0 1-.588.254c-.271.051-.662.076-1.176.076h-.738v2.022h-1.134zm1.135-4.454v1.521h.619c.447 0 .746-.027.896-.084a.736.736 0 0 0 .354-.264.692.692 0 0 0 .129-.416.677.677 0 0 0-.18-.482.79.79 0 0 0-.457-.238c-.135-.023-.406-.037-.814-.037h-.547zm9.597 4.454h-1.232l-.49-1.218h-2.244l-.463 1.218h-1.203l2.188-5.36h1.197l2.247 5.36zm-2.086-2.12l-.775-1.99-.756 1.99h1.531zm4.688 2.12v-4.454h-1.664v-.906h4.459v.906h-1.66v4.454h-1.135zm4.23-2.648c0-.545.086-1.004.258-1.375.127-.272.301-.518.521-.734s.463-.378.727-.482c.35-.142.752-.212 1.209-.212.826 0 1.488.244 1.984.735.496.489.746 1.17.746 2.043 0 .865-.246 1.543-.74 2.031-.492.489-1.15.732-1.975.732-.836 0-1.498-.242-1.99-.729-.494-.485-.74-1.155-.74-2.009zm1.168-.036c0 .606.146 1.067.441 1.38.293.313.664.471 1.117.471.451 0 .822-.156 1.113-.467.287-.311.434-.777.434-1.398 0-.614-.141-1.072-.424-1.375-.281-.302-.656-.453-1.123-.453s-.844.152-1.129.459c-.286.304-.429.767-.429 1.383zm6.291 2.684v-5.36h1.818c.689 0 1.139.027 1.348.08.322.08.592.256.809.525s.324.617.324 1.043c0 .33-.063.606-.188.831a1.49 1.49 0 0 1-.477.528 1.66 1.66 0 0 1-.588.254c-.27.051-.662.076-1.176.076h-.738v2.022h-1.132zm1.133-4.454v1.521h.621c.445 0 .744-.027.895-.084a.725.725 0 0 0 .355-.264.69.69 0 0 0 .127-.416.669.669 0 0 0-.18-.482.784.784 0 0 0-.455-.238c-.135-.023-.406-.037-.816-.037h-.547zm5.24-.906h1.061v3.568l2.273-3.568h1.131v5.36h-1.061v-3.499l-2.27 3.499h-1.135v-5.36zm10.108 5.36v-2.237h-.229c-.357 0-.609.051-.758.152-.146.104-.396.41-.752.918l-.818 1.167h-1.355l.686-1.046c.27-.414.486-.705.646-.871a2.44 2.44 0 0 1 .605-.448c-.523-.078-.9-.252-1.135-.521a1.444 1.444 0 0 1-.348-.967c0-.327.086-.616.26-.868.172-.252.398-.422.68-.509.283-.087.705-.13 1.266-.13h2.385v5.36h-1.133zm0-4.454h-.883c-.451 0-.746.011-.887.029a.593.593 0 0 0-.365.198.618.618 0 0 0-.154.438c0 .188.049.338.148.448.098.11.223.181.375.206.15.027.461.041.928.041h.838v-1.36z" fill="#DFDFDF"/><path fill="#1E0E01" d="M75.531 78.468c-.544-.393-.9-1.148-1.794-.888-.163.047-.363-.045-.546-.045-3.392 0-6.784.005-10.176.009-.438-.014-.879-.003-1.314-.048-.553-.057-.489.299-.326.54.377.558-.375.546-.375.554v35.513c0 .095.997.449 1.571.284.543.009 1.086.018 1.63.025.693.128 1.315-.165 1.961-.316.158-.037.263-.121.224-.303l.001-.363c.003-2.941.008-5.883.009-8.823 0-.288-.027-.575-.042-.862.076-1.322.065-2.644.008-3.966l.023-7.737.014-.467a99.44 99.44 0 0 0-.097-.533c.224-1.162.071-2.33.064-3.496.01-1.4.038-2.801.02-4.201-.006-.428.12-.539.552-.536 2.296.019 4.592.004 6.889.001.217-.006.435-.012.652-.016.767-.002 1.172-.49 1.095-1.32.01-.9.022-1.802.027-2.703.002-.105-.005-.256-.07-.303zm-1.059 3.665c-.22.113-.439.227-.659.339l.659-.339c.081-.201.232-.297.401-.364-.169.067-.32.163-.401.364zM123 99.432c0-.141.191-.28.182-.443-.313.074-.497.084-.504.502-.048 2.705-.06 5.41-.116 8.115-.002.14.004.307.189.362.177.053.126-.022.254-.142.214-.199-.005-.457-.005-.709v-7.685zm-21.755 8.241c-.306 2.266-.611 4.531-.912 6.798-.042.316-.049.632.411.666.427.032.576-.164.586-.57.027-1.152.088-2.303.132-3.453.084-2.186.166-4.371.248-6.557l-.037-.006c-.143 1.041-.288 2.081-.428 3.122zm33.993 7.071c-.46.322-.766.273-1.005-.209-.137-.275-.253-.538-.618-.511-.375.028-.543.323-.619.614-.119.453-.371.604-.834.577-.499-.029-.855.183-.926.718-.046.342.02.531.439.38.748-.271 1.547-.278 2.324-.397.267-.026.597.28.791-.094.275-.529.686-.67 1.234-.512.305.088.315-.088.281-.287-.073-.437-.635-.582-1.067-.279zm-46.881-2.073c-.251-.493-.968-.632-1.27-.19-.337.492-.768.979-.708 1.649.032.292-.087.708.277.8.446.114.965.377 1.383-.103.131-.149.295-.18.478-.223.399-.095.617-.477.389-.773-.275-.358-.355-.78-.549-1.16z"/><path fill="#EDEDED" d="M129.284 50.058c-.617.154-1.198-.085-1.796-.054-.65.034-.965.52-.957 1.253.006.482.205.742.939.742h.453c.521 0 1.061-.226 1.559-.617.289-.227.375-.639.457-.923.053-.187-.441-.454-.655-.401z"/><path fill="#1E0E01" d="M169.138 77.864c.364-.208.837-.298 1.316-.376.144-.024.205-.19.286-.311.328-.491.012-.845-.211-1.262-.344-.642-.85-.736-1.271-.135a8.323 8.323 0 0 0-.723 1.264c-.203.435.074.834.603.82zm-45.956 16.624c.34-.007.248-.423.249-.598.007-1.242.003-1.891.003-3.891h.005c0-2 .001-2.21-.001-3.397 0-.144-.002-.207-.031-.347-.031-.144-.121-.266-.273-.26-.229.008-.131.232-.133.358-.004.306.016.622.01.927-.041 2.249-.086 4.502-.127 6.75-.005.212-.056.464.298.458zm24.955 3.34c.39-.91 1.125-1.406 2.053-1.699.249-.078.34-.316.314-.623-.042-.255-.045-.585-.398-.725-.217-.086-.432-.082-.613.1-.592.593-1.211 1.16-1.648 1.887-.197.326-.176.652-.116.99.018.102.044.232.171.256.129.024.197-.094.237-.186zm-71.104 1.09c0 .753.087 1.457-.017 2.133-.292 1.904-.071 3.814-.144 5.719-.005.133-.05.332.141.36.185.028.292-.135.346-.294a.976.976 0 0 0 .042-.319c.002-2.343.002-4.687 0-7.029 0-.213-.011-.429-.368-.57z"/><path fill="#EDEDED" d="M133.287 40.949c.206.128.313.081.303-.167.076-1.041.25-2.075.221-3.123.109-.245-.059-.513.039-.745.162-.388.072-.664-.352-.716-.443-.054-.628.25-.631.643-.01 1.172-.01 2.344-.001 3.516.002.274.044.555.421.592z"/><path fill="#1E0E01" d="M118.391 101.638c-.468-.063-.907.146-1.371.13-.126-.006-.263.06-.293.203-.029.137.107.176.193.23.196.125.284.318.391.51.287.515.858.473 1.333.598.424.111.258-.337.417-.468.422-.347.039-.716.013-1.048-.023-.273-.445-.106-.683-.155z"/><path fill="#EDEDED" d="M134.457 19.812c.267-.315.582-.542.976-.676.226-.077.378-.22.38-.319.007-.36-.027-.661-.27-.574-.648.233-1.37.34-1.903.807-.259.227-.368.57-.049.854.302.268.622.197.866-.092z"/><path fill="#1E0E01" d="M102.893 93.725c-.226-.105-.461-.049-.597.136-.22.301-.418.624-.575.96-.133.283-.054.568.195.779.184.154.432.209.609.054.366-.322.62-.73.752-1.124-.021-.38-.076-.663-.384-.805zm-25.772 1.754c-.192.127-.433.231-.308.543.129.322.07.641-.08.938-.172.341-.037.462.335.469.313-.026.571-.177.678-.505.147-.449.285-.906-.097-1.319-.143-.156-.313-.269-.528-.126z"/><path fill="#EDEDED" d="M132.977 34.945c.029.206.16.458.398.438.221-.019.19-.194.206-.349.048-.481.079-.946.146-1.425.029-.218.24-.473-.135-.555-.352-.077-.563.019-.623.329-.047.243-.01.618-.01.618h-.029c.013.999.008.679.047.944z"/><path fill="#1E0E01" d="M176.207 77.251c-.182.001-.363-.251-.546-.251h-.443c-.544 0-1.089.276-1.634.275-.193-.046-.387.095-.58.14-.352-.007-.703.054-1.055.047-.267-.051-.371.17-.424.357-.107.391-.18.809-.268 1.205-.042.215-.087.439.078.628-.328.063-.271.35-.32.562-.889 3.863-1.768 7.731-2.664 11.594-.246 1.061-.841 1.502-1.962 1.523-.331.007-.667-.025-.995.01-.456.049-.587-.104-.586-.56.019-4.528.016-9.056 0-13.583 0-.254.25-.777-.439-.64-.11.022-.086-.129-.08-.214.012-.145-.054-.238-.188-.295-1.204-.511-2.444-.553-3.835-.313.164.059.207.083.252.09.275.047.397.228.318.467-.117.358-.273-.083-.428-.006-.237.118-.264-.357-.57-.185-.332.188-.64.42-.639.788.012 4.546-.199 9.09-.199 13.636v.542c0 .139.17.223.004.265-1.084.274-2.097-.364-2.37-1.434-.147-.576-.249-1.151-.381-1.731-.85-3.725-1.674-7.448-2.503-11.177-.055-.247-.274-.397-.261-.655-.521.239-.6-.285-.865-.486-.082-.062-.142-.124-.219-.021-.251.333-.39.198-.445-.114-.04-.226-.197-.177-.332-.178-.792-.004-1.585-.023-2.376.006-.653.024-1.169.7-1.036 1.317a541.181 541.181 0 0 0 2.943 12.967c.335 1.386.61 2.793 1.526 3.961.177.227.016.365-.093.523-.508.74-.905 1.523-1.037 2.417-.123.144.004.155.1.216.274.172.614.311.784.557.271.4-.056.691-.698.711-.402.012-.7.221-.743.637-.048.475.331.142.496.221.091.044.241.006.258.146.018.162-.125.21-.25.228-.138.02-.28.005-.424.005.398.553.359.74-.211 1.1-.057.037-.09.109-.133.164-.517.311-.35.886-.453 1.314-.794 3.293-1.503 6.605-2.25 9.91-.084.373-.018.508.408.499 1.217-.026 2.435-.011 3.652-.013.355.097.553-.098.674-.414.42.551.443.546.734-.02.058-.111.158-.201.137-.341.04-.194.078-.388.121-.581.975-4.27 1.939-8.541 2.928-12.807.277-1.201.893-1.613 2.161-1.648.466-.013.579.121.577.568-.019 4.022.027 8.046-.035 12.068-.018 1.127.499 1.99.977 2.911.148.286.358.341.631.165.342-.22.717-.203 1.063-.061.408.166.824.158 1.247.166.246.004.405-.037.48-.312.071-.257.212-.556.53-.555.534.003.508-.31.508-.675-.007-4.294-.004-8.588-.004-12.881 0-1.398 0-1.398 1.434-1.385 1.248.011 1.826.447 2.116 1.621 1.036 4.2 1.942 8.43 2.893 12.648-.056.207.085.377.114.568l.231.518c-.071.316.05.463.391.447.343-.015.687-.008 1.029-.012.866.004 1.733.011 2.6.011.62 0 .904-.237 1.144-.802.15-.355.037-.684-.033-.997-1.059-4.784-2.082-9.577-3.312-14.324-.139-.536-.342-1.046-.787-1.458-.517-.477-.499-1.115-.001-1.695.228-.264.311-.551.399-.867.179-.637.063-1.357.534-1.904a1.76 1.76 0 0 0 .38-.764 487.81 487.81 0 0 0 2.896-12.812c.023-.14.04-.419.07-.557.191-.856.193-.996-.711-.991zm-23.326 23.989c-.016.076-.047.127-.093.152.046-.025.077-.076.093-.152.236-.223.143-.374-.109-.491-.115-.118-.262-.229-.268-.362.006.133.152.244.268.362.251.117.345.269.109.491zm19.463 12.314l-.11.095-.322.004-.091-.201.091.201.322-.004.11-.095z"/><path fill="#EDEDED" d="M147.646 59.848l-.009-.296c.105-.343.098-.613-.37-.667-.105-.012-.196-.144-.294-.221l-.097-.529.083-.453.143-.132c.535-.246.311-.483-.009-.719l-.017-.207.006-.346a1.5 1.5 0 0 1 .221-.605c.455-.726.814-1.477.873-2.351.031-.469.238-.9.531-1.285.123-.16.219-.366.467-.295.271.077.277.318.248.536-.096.692-.265 1.38-.294 2.075-.022.528-.521 1.121.131 1.601-.022.095.004.171.094.222l.004.445c-.177.152-.108.354-.117.541l-.263.54c-.246-.017-.289.115-.31.328-.075.738.696.902.966 1.402l-.006.32c-.331.102-.445.436-.666.649-.112.108.252.294.307.506.025.101.082.194.125.291l.023 1.051a1.003 1.003 0 0 0-.062.877l-.048.173c-.409.583-.176 1.188-.079 1.804.13-.328.585-.344.642-.704l.225-.234c.211 0 .321-.093.309-.307.201-.165.146-.393.146-.603.002-2.109.002-4.218.002-6.327 0-6.872-.002-13.743 0-20.615.001-2.832.007-5.523.011-8.355.024-.031.048.045.071.045H160v-6h-18.553c-1.046 0-2.1-.169-3.149-.182-.313-.004-.579-.04-.799.183-.434.107-.945-.018-1.236.44-.644.998-1.219 2.013-1.923 2.977-.393.538-.849 1.081-.612 1.855.088.286.174.422.505.418 1.474-.018 2.913-.016 4.387-.02.138.004.382.007.382.012V28h4.482c.216 0-.003.304.123.467-.033.989.141 1.9.088 2.891-.092 1.735.232 3.434.017 5.171-.017.139-.033.314.044.399.209.228.072.424.043.649-.075.57-.276 1.13-.112 1.716-.101.522.102 1.058-.081 1.576-.033.23-.099.46.038.682-.044 1.486-.073 2.972.015 4.458-.16.954-.076 1.91-.042 2.866.021 4.636-.097 9.273.063 13.909-.248.728-.039 1.223.574 1.368-.025.236-.362.051-.406.318.473.263.846-.022 1.196-.245.536-.34.912-.878 1.418-1.242.437-.314.676-.672.772-1.162.34-.616.631-1.244.412-1.973zm1.379-2.168c-.009-.002-.014.006-.021.008.008-.001.013-.01.021-.008l.303.015-.303-.015zm.633 5.216zm-5.708-23.884c.039-.116.044-.249.063-.375-.019.127-.024.259-.063.375zm.064-.375zm2.537 21.763c.043-.031.076-.075.113-.113-.078-.098-.158-.196-.221-.293.063.098.143.195.221.293-.037.038-.07.082-.113.113zm.222 1.075zm-39.906-44.707c.348-.009.541-.189.542-.5.002-.33-.188-.553-.544-.548-.319.004-.522.197-.528.508-.007.335.181.534.53.54z"/><path fill="#1E0E01" d="M123.162 96.237c-.463-.012-.288.36-.328.597-.055.326.031.631.406.611.365-.02.082-.371.237-.594-.297-.119.271-.599-.315-.614z"/><path fill="#EDEDED" d="M137.693 35.2c-.348-.309-.674-.152-.982.088-1.021.456-.746 1.264-.58 2.145.498-.667 1.084-1.149 1.586-1.71.176-.183.137-.379-.024-.523zm-37.015 27.969c.179-.105.396-.237.17-.494l-.028-.229-.083.008.083-.008a.634.634 0 0 0-.084-.423c-.014-.183.052-.38-.098-.539-.067-.992-.32-1.954-.482-2.93-.168-.987-.355-1.972-.495-2.962-.068-.483-.331-.913-.4-1.363-.121-.782-.084-1.588-.327-2.358.063-.542-.081-1.058-.186-1.582-.074-.372-.104-.722-.509-.936-.228-.122-.275-.397-.286-.663-.012-.309.008-.641-.291-.862a4.15 4.15 0 0 1-.15-1.755c.042-.298.041-.525-.134-.792-.233-.355-.387-.82-.092-1.168.324-.382.258-.734.187-1.143-.762-4.36-1.515-8.721-2.272-13.082-.4-2.305-.798-4.609-1.208-6.912a1.635 1.635 0 0 0-1.604-1.333c-.792 0-1.584.005-2.376.008l-.02.014a.396.396 0 0 0-.164-.037l-2.307-.044a.34.34 0 0 0-.353.26.43.43 0 0 0-.157-.037.353.353 0 0 0-.258-.103c-.243 0-.365.182-.37.366a.357.357 0 0 0-.158.2c-.961 3.038-.92 6.243-1.675 9.316-.339.43-.479.961-.474 1.567l-.008.185c-.263.52-.282 1.088-.339 1.649-.459 1.597-.347 3.295-.911 4.878-.161.452-.17.955-.256 1.434-1.315 7.319-2.637 14.638-3.938 21.959-.092.52-.364 1.057-.053 1.598.138.194.356.251.566.323.115.118.266.102.41.102 1.186 0 2.372 0 3.557-.002.201 0 .403-.001.58-.117.215-.021.339-.159.441-.326l.12-.101.563-.305c.446-.057.658-.285.677-.746.012-.298.091-.598.082-.903.069-.294.153-.585.204-.882.301-1.735.609-3.47.876-5.21.057-.37.212-.421.533-.419 1.509.011 3.018.021 4.526-.005.429-.007.561.136.617.534.194 1.388.429 2.77.649 4.154-.022.444.06.871.211 1.287.034.289.022.584.138.86l.022.422c.03.281.044.565.098.843.027.137.041.352.284.306.395-.075.915-.808.901-1.252l.036-.42c.108-.092.087-.215.083-.333.104-.164.125-.346.123-.533.088-.046.107-.125.11-.213.099-.149.168-.335.302-.441.502-.397.372-.784.024-1.186-.118-2.128-.035-4.26-.084-6.389.114-.15.083-.307.025-.466.078-.177.009-.342-.023-.518-.077-.419-.144-.847.035-1.262.16-.131.36-.208.243-.507-.192-.488-.318-1-.472-1.502l.06-.29c.265.186.681-.024.884.323.462.184.563.502.456.968-.074.322.141.579.414.765.008.142.142.319-.114.385-.399.138-.377.415-.244.721.146.334.426.572.649.852-.027.168.069.151.179.115a.314.314 0 0 0 .335 0c.331.129.495.352.412.709-.036.154.013.279.117.391.346.369.411.815.389 1.292-.018.392.016.781.114 1.163-.012.257-.001.512.087.759l.011.205.003.457.003.842c.166.063.332.131.492.138-.16-.007-.327-.076-.493-.138-.021.478.137.933.192 1.401.039.216.025.457.284.569.126.518.291 1.012.807 1.297-.002.216.266.232.314.409.043.153.12.291.298.187zm-21.767 1.21c.083-.02.111-.08.103-.16.008.08-.02.141-.103.16zm5.188.422l-.017-.046.017.046zm8.731-15.496c-.693.1-.335 1.166-.837 1.101-.604-.078-1.197.187-1.777-.048-.387-.157-.776-.093-1.187-.049-.519.055-1.054-.068-1.584 0-.105.014-.183-.044-.143-.162.177-.521.084-.999-.346-1.461.297-.053.222.34.423.195.122-.088.131-.261.111-.399-.12-.848.198-1.6.509-2.358.095-.232.215-.49.195-.725-.104-1.215.378-2.336.543-3.506.296-2.105.62-4.206.927-6.309.03-.209.05-.416.172-.625.464 3.134.905 6.237 1.394 9.333.121.764.254 1.525.347 2.293.062.516.133 1.033.571 1.422.343.305.273.859.668 1.15.029.021.018.147.014.148zm2.313 11.864c-.035.08-.169.108-.462.166.293-.059.427-.086.462-.166zm1.588-11.713zm.546 1.424c.046.096.138.115.231.129l.005.168-.005-.168c-.093-.014-.184-.033-.231-.129zm.346-.499c.007.05.001.103.001.154l-.21.131.21-.131c.001-.052.006-.104-.001-.154zm-.095 1.676l-.043-.184c.006-.145-.054-.292-.057-.438.003.145.063.293.058.438l.042.184zm.253-2.38zm1.615 9.759a.533.533 0 0 0 .335-.226l-.116-.208c-.043-.006-.095-.002-.142-.005.047.003.099 0 .142.005l.116.208a.538.538 0 0 1-.335.226z"/><path fill="#1E0E01" d="M120.778 84.223c.056-.354-.347-.535-.344-.869.157-.117.052-.244-.024-.32-.096-.096-.141.036-.194.096a16.81 16.81 0 0 1-.224-.013c-.018-.021-.038-.04-.056-.06a.335.335 0 0 0 .026-.172c-.151-1.473-1.129-3.121-2.395-3.958-1.63-1.079-4.183-1.076-6.072-1.133a.33.33 0 0 0-.32.18 1.712 1.712 0 0 1-.683-.389c-.091-.086-.32-.054-.483-.044-.522.03-1.083.118-1.559.074-1.002-.092-2 .003-2.994-.089-.5-.046-.646.106-.644.613.018 7.049.012 14.1.012 21.15 0 4.868.005 9.736-.009 14.604-.001.412.09.562.541.545.939-.037 1.881.01 2.82-.023.256-.01.574.16.735-.197.103.141.319.166.491.08.213.199.662.115.657-.256-.033-2.383-.004-4.763.086-7.143a.319.319 0 0 0-.133-.285c.063-.375.063-.738-.138-1.076-.009-.021-.021-.038-.034-.057-.023-.034-.034-.069-.062-.104-.111-.133-.154-.318-.173-.505-.067-.649-.025-.688.584-.46.073-.385.056-.732-.214-1.066-.285-.352.174-.747-.007-1.123.406-.104.239-.428.254-.667.022-.341.022-.685.001-1.026-.019-.304.088-.41.405-.403.884.018 1.769.012 2.654.004 1.397-.013 2.7-.37 3.86-1.131 2.581-1.692 3.754-4.157 3.82-7.113.053-2.372.133-4.751-.085-7.123l-.099-.541zm-11.581 23.795c-.009-.008-.023-.012-.032-.02.009.008.023.012.032.02zm3.199-29.434c-.021.05-.024.086-.013.114-.011-.028-.009-.064.013-.114zm3.155 13.693a2.924 2.924 0 0 1-.638 1.811c-.4.5-.942.74-1.584.748-.884.012-1.769-.011-2.653.016-.379.012-.457-.133-.454-.471.013-1.855.006-3.711.006-5.567 0-1.838.009-3.676-.008-5.513-.003-.366.086-.511.486-.494.699.031 1.4.008 2.1.01 1.746.001 2.683.779 2.736 2.488.073 2.322.037 4.648.009 6.972zm2.672-10.547c-.015-.034-.014-.068-.025-.104.01.036.01.07.025.104zm.601.096c-.08.07-.138.092-.183.084.045.008.103-.014.183-.084l.054.008-.054-.008zm.089.014c.018-.002.027-.006.043-.008.017.049.033.098.048.148-.029-.047-.065-.091-.091-.14z"/><path fill="#EDEDED" d="M111 50.548v.977c0 .444-.292.939.041 1.155.219.141.132.269.225.437.203.365-.131.845.256 1.154.002.495-.139.991-.016 1.485-.004.135-.065.274.027.4.097.252.184.505.286.755.267.657.105 1.535-.423 1.933-.324.244-.394.522-.396.885-.004.627.184 1.315-.12 1.867-.372.675-.313 1.352-.3 2.039.013.695.724 1.03.969 1.617.016.04.175.042.262.03.852-.118 1.747.259 2.57-.214.039-.022.153.016.187.059.188.248.426.137.654.104.42-.041.852.172 1.263-.054.302.008.449-.226.637-.394.12-.073.317-.062.307-.274.013-.153-.207-.305-.195-.458 0-.049-.234-.098-.234-.146v-.185c0-.051.237-.102.239-.152-.001-1.046.114-2.093.114-3.139 0-3.951.068-7.901.045-11.852-.003-.513.183-.638.678-.617.865.038 1.748.019 2.615.008 5.378-.066 9.729-4.259 9.83-9.525.047-2.434.046-4.871.004-7.305-.076-4.332-3.171-8.112-7.461-9.182-2.146-.535-4.327-.257-6.495-.291-.257-.009-.513-.028-.769-.025-.513.007-1.045-.049-1.53.072-.268.067-.413.288-.705.077-.163-.117-.649-.789-.697.211H111v5h-.41a14.7 14.7 0 0 0-.011.517c0 5.653-.006 11.425-.004 17.079 0 1.8.222 3.66.228 5.46-.127.14.197.344.197.492zm9.401-7.26c-.308-.019-.619-.017-.929-.021.415-.024.83-.053 1.244-.094a.428.428 0 0 1-.315.115zm-2.974-2.585c.009-.363.213-.723.019-1.089l.023-6.055c-.005-.007-.402-.015-.407-.022.205-.279-.062-.634-.062-1.072v-5.396c0-.038.992-.075 1.29-.116.103-.015.345-.053.368-.1.64.072 1.378.159 2.017.281.03.006.104 0 .132 0 .17.076.363.157.528.246.062.038.136.069.196.108.356.231.69.519 1.067.723.378.303.736.637 1.071.996a.316.316 0 0 0-.089.348l.722 2.27a.364.364 0 0 0 .111.166c.005 2.14.002 4.28-.023 6.419-.012.908-.439 1.705-.977 2.429-.402.541-1.09.642-1.645.95-.334.085-.744.329-.664.58.002.005.001.008.002.013a31.121 31.121 0 0 1-3.327.191c.137-.184.183-.37-.225-.568l-.102-.066.018-.021-.014-.024c-.007-.399.056-.797-.029-1.191zm-.522 23.485c-.129.073-.286.107-.359.254l-.342.171c-.053.003-.108.009-.16.01.051-.001.106-.006.16-.01l.342-.171c.074-.146.23-.181.359-.254zm-.767.02zm.129-.47c.067.025.148.048.135.136.013-.088-.068-.111-.135-.136-.081-.15-.17-.268-.266-.295.096.028.186.145.266.295zm-1.48.462c.102-.024.216.005.325.01l-.005.016c.002-.005.002-.011.005-.016-.109-.005-.223-.034-.325-.01zm.283.154z"/><path fill="#EDEDED" d="M120.607 37.508c.411-.329.312-.931.672-1.263.318-.293.433-.606.391-.877-.052-.868-.139-1.599-.501-2.267-.076-.14-.166-.323-.359-.279-.181.041-.123.237-.136.372-.052.54-.105 1.123.093 1.603.408.991-.417 1.606-.659 2.385-.075.241-.263.414-.022.6.325.251.364-.149.521-.274zm.035-5.447c.283.044.18-.278.216-.445-.018-.25.051-.544-.341-.558-.164-.006-.329.075-.261.248.106.264.003.694.386.755z"/><path fill="#1E0E01" d="M96.671 109.149c-.038-.366-.082-.73-.137-1.091.019.018.036.035.057.051.068.047.149-.077.154-.173.024-.446.016-.885-.333-1.308a.926.926 0 0 0-.094.213 49.847 49.847 0 0 0-.427-1.943l-.468-2.912c.015-.393.042-.786.081-1.182.043-.438.116-.9-.098-1.33-.274-1.65-.541-3.301-.825-4.949-.727-4.22-1.46-8.438-2.191-12.656.021-.117.022-.222-.148-.205-.419.043-.498-.111-.208-.395.208-.203.172-.419.136-.648-.073-.463-.229-.899-.238-1.392-.018-.972-.115-.996-1.116-1.061-.587-.038-1.162-.236-1.682-.437-.479-.186-.883-.243-1.351-.14-.789-.123-1.583-.029-2.374-.062-.321-.013-.342.208-.381.423-.813 4.521-1.626 9.042-2.437 13.565-.867 4.841-1.731 9.683-2.596 14.524-.396 2.217-.787 4.434-1.18 6.65-.148.151-.114.328-.082.541-.153.309-.251.643-.011.883.278.279.798.246 1.228.169.109.259.431.08.637.138l.447-.004c.571.002 1.144-.016 1.713.013.354.018.581-.063.716-.414.004-.011.011-.017.016-.026a.347.347 0 0 0 .293.143c.35 0 .447-.373.303-.593.042-.009.081-.022.124-.028.239-.031.335-.139.371-.377.324-2.135.677-4.266.985-6.403.066-.458.234-.591.698-.577 1.141.033 2.286.044 3.426-.004.532-.023.688.164.75.639.219 1.678.473 3.35.713 5.024.031.37.03.746.173 1.1.015.085.038.165.143.178.131.015.177-.071.207-.173l.299-.067c.172.059.229-.014.21-.175l.135-.213c.133-.035.385.094.365-.142-.015-.177-.209-.21-.359-.05l-.293-.059c-.129-.203-.308-.18-.498-.105a.728.728 0 0 1-.052-.045c-.119-.039-.148-.131-.153-.239l.101-.124-.101.124c.005.108.034.2.153.239l.058-.354.117-.109c.479-.102.974-.162 1.353-.516l.738-.305c.415.031.864-.203 1.208-.089.412.137.453-.057.572-.284.111-.046.279.061.416.086l.061.294c.006.486-.003.979-.042 1.483-.027.356.386.446.618.275a.432.432 0 0 0 .418-.204c.161-.063.278-.214.208-.423-.095-.287-.179-.576-.27-.864.228-.016.446-.238.324-.517a47.3 47.3 0 0 1-.58-1.388zm-17.791 3.817l.016-.035.002.003c-.005.011-.012.021-.018.032zm11.056-10.575c-1.106.002-2.212-.004-3.318.003-.336.002-.284-.214-.257-.407.122-.881.25-1.762.378-2.642.205-1.409.407-2.817.619-4.225.231-1.535.468-3.069.711-4.603.056-.354.049-.719.206-1.073.278 1.823.564 3.636.829 5.45.273 1.87.526 3.744.789 5.615.077.547.134 1.098.25 1.637.05.237-.043.245-.207.245zm50.59-7.383a.3.3 0 0 0-.299-.27 3.872 3.872 0 0 1 .009-.689c-.004-.072-.001-.146-.014-.217l-2.637-15.124c.036-.403-.263-.415-.54-.427-.355-.016-.386-.133-.153-.375.066-.069.187-.123.141-.264-.509-.182-1.037-.141-1.564-.106l-3.267.01c-.351-.021-.7-.071-1.052-.006-.436-.043-.342.33-.377.525-.652 3.562-1.283 7.126-1.924 10.688-.837 4.662-1.682 9.324-2.517 13.986-.575 3.209-1.137 6.42-1.704 9.631l-.306 1.52c.14.146-.389.539.2.518l.57.01c1.43-.004 2.859.014 4.287-.026.414-.011.904-.089.854-.716-.012-.14.038-.284.061-.426.34-2.17.687-4.338 1.014-6.508.063-.416.182-.61.681-.59 1.177.047 2.358.035 3.536.004.456-.011.588.149.645.572.225 1.676.491 3.346.742 5.018a.058.058 0 0 0 .01.065l.024.437c-.021.16-.046.322.104.445.02.247.032.494.063.74.041.32.26.607.521.669.195.046.367-.287.461-.522.223-.12.104-.265-.018-.322-.31-.148-.251-.496-.443-.704-.036-.04-.042-.15-.012-.196.067-.104.143-.039.221.019.203.147.467.175.564-.052.206-.475.636-.377.855-.225.401.279.541.023.748-.184.121-.035.242-.055.359.01l.112.109c-.002.142-.024.299.183.324.137.018.256-.027.317-.154.067-.142.009-.238-.142-.284l-.035-.202c.079-.123.213-.187.321-.285l.201 1.484c.063.473.833.479.769 0l-.094-.692c.085.38.157.761.246 1.14.097.415.682.309.745-.043.012-.012.024-.021.035-.034.015.075.028.151.042.227-.086.222.025.526.342.526a.363.363 0 0 0 .199-.059c.159-.067.287-.22.245-.432a594.78 594.78 0 0 1-3.329-18.543zm-5.147 7.396c-.939-.044-1.882-.025-2.822-.006-.381.008-.492-.057-.428-.479.631-4.15 1.232-8.304 1.844-12.457a8.07 8.07 0 0 1 .077-.021c.185 1.226.371 2.451.553 3.678.427 2.887.843 5.775 1.288 8.66.07.454.036.651-.512.625zm.989-24.708c.003-.012.005-.03.007-.044-.002.014-.004.032-.007.044.032.005.065.018.095.013-.029.004-.063-.008-.095-.013zm3.421 24.194a.35.35 0 0 1 .039-.038l.047.344a4.462 4.462 0 0 0-.086-.306zm.154-4.863l-.014-.092a.21.21 0 0 0 .002-.025.252.252 0 0 0 .137-.053c.01.061.021.119.03.18a.428.428 0 0 0-.155-.01zm.191 12.124a.238.238 0 0 1 .14-.019h.001a.249.249 0 0 0-.141.019zm.352.521c-.041.05-.082.087-.119.091.037-.004.078-.042.119-.091l.123-.055-.123.055zm.112-1.102l-.01.27.001.065-.001-.064.01-.271a3.724 3.724 0 0 1-.031-.113l.002-.299c-.105-.022-.169-.068-.17-.151.001.083.064.129.17.151l.035-.111c.021-.031.032-.066.052-.098l.095.7a.235.235 0 0 0-.153-.079zm.175.976l-.027-.519.029-.188.119.873c-.04-.056-.076-.112-.121-.166zm.44-5.735c-.094-.621-.189-1.242-.273-1.865.108.617.208 1.236.318 1.853-.014.005-.032.006-.045.012zm.213 1.324l-.051-.22c-.039-.247-.07-.495-.109-.742.006-.051.018-.103.029-.153.228 1.27.473 2.536.708 3.804l-.577-2.689z"/><path fill="#ADACAC" d="M207.695 74.684c-.37-.496-1.482-1.684-3.797-1.684h-167.4c-2.292 0-3.425 1.206-3.806 1.715-.936 1.252-1.164 2.731-.659 4.276l11.684 35.545c1.691 4.248 3.707 4.463 5.273 4.463h142.417c1.59 0 3.625-.189 5.281-4.351l11.676-35.743c.505-1.552.269-2.968-.669-4.221zm-.064 4.131l-11.668 35.458c-1.669 4.19-3.619 3.727-4.557 3.727H48.99c-.85 0-2.839.466-4.548-3.826l-11.676-35.57c-.433-1.326-.249-2.347.547-3.413.312-.417 1.246-1.191 3.185-1.191h167.4c1.962 0 2.875.835 3.177 1.239.8 1.07.991 2.239.556 3.576z"/></svg>