<?xml version="1.0" encoding="utf-8"?>
<!-- Generator: Adobe Illustrator 26.3.1, SVG Export Plug-In . SVG Version: 6.00 Build 0)  -->
<svg version="1.1" id="clock" xmlns="http://www.w3.org/2000/svg" xmlns:xlink="http://www.w3.org/1999/xlink" x="0px" y="0px"
	 viewBox="0 0 320 320" style="enable-background:new 0 0 320 320;" xml:space="preserve">
<path d="M224.6,264.9c0.9,0.8,1.3,1.9,1.3,3.2c0,1.5-0.5,2.7-1.5,3.6c-1,0.9-2.4,1.4-4.1,1.4c-1.4,0-2.6-0.2-3.6-0.6v-2.8
	c1,0.6,2.1,0.9,3.2,0.9c0.9,0,1.5-0.2,2-0.6s0.7-1,0.7-1.7c0-1.5-1-2.2-3.1-2.2c-0.8,0-1.6,0.1-2.6,0.2l0.6-8.2h7.8v2.6h-5.3
	l-0.2,2.9c0.5,0,1-0.1,1.4-0.1C222.6,263.7,223.8,264.1,224.6,264.9z M286.2,166c1-0.8,1.5-1.9,1.5-3.2c0-0.9-0.3-1.7-0.9-2.3
	c-0.6-0.6-1.4-1-2.5-1.1v-0.1c1.9-0.5,2.9-1.7,2.9-3.6c0-1.1-0.4-2-1.3-2.6c-0.8-0.7-2-1-3.5-1c-1.4,0-2.6,0.3-3.6,0.8v2.6
	c0.9-0.6,1.9-1,2.9-1c1.5,0,2.2,0.6,2.2,1.8c0,1.3-1,1.9-2.9,1.9h-1.3v2.5h1.4c1,0,1.8,0.2,2.4,0.5c0.6,0.4,0.9,0.9,0.9,1.5
	c0,0.6-0.2,1.1-0.7,1.5c-0.5,0.4-1.1,0.5-1.9,0.5c-1.3,0-2.5-0.4-3.4-1.1v2.8c1,0.5,2.2,0.7,3.7,0.7
	C283.8,167.2,285.2,166.8,286.2,166z M68.8,100.7c0,2.5-0.5,4.4-1.4,5.7c-0.9,1.3-2.3,2-4,2c-3.5,0-5.3-2.4-5.3-7.3
	c0-2.5,0.5-4.5,1.4-5.8c0.9-1.3,2.3-2,4.1-2C67.1,93.2,68.8,95.7,68.8,100.7z M65.5,100.8c0-3.4-0.7-5.1-2-5.1
	c-1.4,0-2.1,1.8-2.1,5.3c0,3.3,0.7,5,2.1,5C64.8,105.9,65.5,104.2,65.5,100.8z M97.9,47.2h-2c-0.6,0.5-1.3,0.9-2,1.3
	s-1.5,0.7-2.4,0.9v2.7c0.3,0,0.6-0.1,0.9-0.2s0.6-0.2,0.9-0.3s0.5-0.2,0.8-0.4c0.2-0.1,0.5-0.3,0.6-0.4l0,11.3h3.2L97.9,47.2z
	 M106,48.4c-0.7,0.4-1.5,0.7-2.4,0.9v2.7c0.3,0,0.6-0.1,0.9-0.2c0.3-0.1,0.6-0.2,0.8-0.3s0.5-0.2,0.8-0.4c0.2-0.1,0.5-0.3,0.6-0.4
	v11.3h3.2v-15h-2C107.5,47.6,106.8,48.1,106,48.4z M60.6,223.5c0.1,0.4,0.2,0.8,0.2,1.2c0,0.6-0.1,1.2-0.4,1.7
	c-0.3,0.5-0.6,1-1.1,1.3c-0.5,0.4-1,0.7-1.7,0.9c-0.6,0.2-1.3,0.3-2.1,0.3c-0.8,0-1.5-0.1-2.1-0.3c-0.6-0.2-1.2-0.5-1.7-0.9
	s-0.8-0.8-1.1-1.3s-0.4-1.1-0.4-1.7c0-0.4,0.1-0.8,0.2-1.2c0.1-0.4,0.3-0.7,0.5-1.1c0.2-0.3,0.5-0.6,0.9-0.9
	c0.4-0.3,0.8-0.5,1.3-0.6c-0.7-0.4-1.3-0.8-1.7-1.4c-0.4-0.6-0.6-1.2-0.6-1.9c0-0.6,0.1-1.1,0.4-1.6s0.6-0.9,1-1.2s0.9-0.6,1.5-0.8
	c0.6-0.2,1.2-0.3,1.9-0.3c0.7,0,1.3,0.1,1.9,0.3c0.6,0.2,1.1,0.5,1.5,0.8c0.4,0.3,0.7,0.8,1,1.2c0.2,0.5,0.3,1,0.3,1.5
	c0,0.7-0.2,1.3-0.7,1.9c-0.4,0.6-1,1-1.8,1.4c0.5,0.2,0.9,0.4,1.3,0.6c0.4,0.3,0.7,0.5,0.9,0.9S60.4,223.2,60.6,223.5z M53.8,218
	c0,0.3,0,0.5,0.1,0.7c0.1,0.2,0.2,0.4,0.4,0.6s0.3,0.3,0.6,0.4c0.2,0.1,0.4,0.1,0.7,0.1c0.2,0,0.5,0,0.7-0.1
	c0.2-0.1,0.4-0.2,0.6-0.4c0.2-0.2,0.3-0.4,0.4-0.6c0.1-0.2,0.1-0.5,0.1-0.7c0-0.3,0-0.5-0.1-0.7c-0.1-0.2-0.2-0.4-0.4-0.6
	c-0.2-0.2-0.3-0.3-0.6-0.4c-0.2-0.1-0.4-0.1-0.7-0.1c-0.3,0-0.5,0-0.7,0.1s-0.4,0.2-0.6,0.4S54,217,54,217.3
	C53.9,217.5,53.8,217.7,53.8,218z M57.7,224.5c0-0.3-0.1-0.6-0.2-0.8s-0.2-0.5-0.4-0.7c-0.2-0.2-0.4-0.3-0.7-0.5
	c-0.3-0.1-0.6-0.2-0.9-0.2c-0.3,0-0.6,0.1-0.9,0.2s-0.5,0.3-0.7,0.4s-0.3,0.4-0.5,0.7s-0.2,0.6-0.2,0.9c0,0.3,0.1,0.6,0.2,0.9
	s0.2,0.5,0.4,0.7c0.2,0.2,0.4,0.3,0.7,0.4c0.3,0.1,0.6,0.1,0.9,0.1c0.3,0,0.6-0.1,0.9-0.2c0.3-0.1,0.5-0.2,0.7-0.4
	c0.2-0.2,0.3-0.4,0.5-0.7C57.6,225.1,57.7,224.8,57.7,224.5z M42.3,156c0.2,0.9,0.4,1.8,0.4,2.9c0,1.3-0.1,2.5-0.4,3.5
	c-0.3,1-0.7,1.9-1.3,2.6c-0.5,0.7-1.2,1.3-2,1.6s-1.7,0.6-2.7,0.6c-1.2,0-2.2-0.2-3.1-0.6v-2.7c0.8,0.5,1.7,0.8,2.8,0.8
	c1.1,0,2-0.4,2.6-1.1c0.6-0.8,0.9-1.9,1-3.3l-0.1,0c-0.6,1-1.6,1.4-3,1.4c-0.6,0-1.2-0.1-1.7-0.3c-0.5-0.2-1-0.5-1.3-0.9
	c-0.4-0.4-0.7-0.9-0.9-1.4c-0.2-0.6-0.3-1.2-0.3-1.8c0-0.8,0.1-1.5,0.4-2.1s0.6-1.2,1.1-1.6c0.5-0.5,1-0.8,1.6-1.1
	c0.6-0.2,1.3-0.4,2.1-0.4c0.8,0,1.5,0.2,2.2,0.5c0.6,0.3,1.2,0.8,1.6,1.3C41.8,154.4,42.1,155.1,42.3,156z M39.4,157.2
	c0-0.4,0-0.7-0.1-1.1c-0.1-0.3-0.2-0.6-0.4-0.9c-0.2-0.2-0.4-0.4-0.6-0.6s-0.5-0.2-0.8-0.2c-0.3,0-0.5,0.1-0.8,0.2
	c-0.2,0.1-0.4,0.3-0.6,0.5s-0.3,0.5-0.4,0.8s-0.1,0.6-0.1,1c0,0.4,0,0.7,0.1,1c0.1,0.3,0.2,0.5,0.4,0.8c0.2,0.2,0.4,0.4,0.6,0.5
	s0.5,0.2,0.8,0.2c0.3,0,0.5-0.1,0.8-0.2s0.4-0.3,0.6-0.5c0.2-0.2,0.3-0.4,0.4-0.7C39.4,157.8,39.4,157.5,39.4,157.2z M53.9,93.1h-2
	c-0.6,0.5-1.3,0.9-2,1.3s-1.5,0.7-2.4,0.9v2.7c0.3,0,0.6-0.1,0.9-0.2s0.6-0.2,0.9-0.3s0.5-0.2,0.8-0.4c0.2-0.1,0.5-0.3,0.6-0.4v11.3
	h3.2V93.1z M152.5,31.8v11.3h3.2v-15h-2c-0.6,0.5-1.3,0.9-2,1.3c-0.7,0.4-1.5,0.7-2.4,0.9v2.7c0.3,0,0.6-0.1,0.9-0.2
	c0.3-0.1,0.6-0.2,0.9-0.3c0.3-0.1,0.5-0.2,0.8-0.4C152.1,32.2,152.3,32,152.5,31.8z M96.5,262.7h6.8c-0.6,0.9-1.1,1.8-1.6,2.8
	c-0.5,0.9-1,1.9-1.4,2.9c-0.4,1-0.8,2-1.1,3.1c-0.3,1.1-0.6,2.2-0.8,3.3h3.4c0.2-1.2,0.4-2.3,0.7-3.4c0.3-1,0.6-2.1,1-3.1
	s0.9-2,1.4-3.1s1.1-2.1,1.8-3.3v-1.9H96.5V262.7z M272.8,102.2h-6.2c0-0.2,0.1-0.4,0.2-0.6c0.1-0.2,0.3-0.4,0.6-0.6
	c0.2-0.2,0.5-0.4,0.8-0.7c0.3-0.2,0.6-0.5,0.9-0.7c0.5-0.3,1-0.7,1.4-1c0.5-0.4,0.8-0.8,1.2-1.2s0.6-0.9,0.8-1.4
	c0.2-0.5,0.3-1.1,0.3-1.8c0-0.6-0.1-1.2-0.3-1.7c-0.2-0.5-0.5-1-0.9-1.3c-0.4-0.4-0.9-0.6-1.5-0.8c-0.6-0.2-1.3-0.3-2-0.3
	c-1.6,0-3,0.4-4.3,1.2v2.8c1.2-1,2.4-1.5,3.6-1.5c0.7,0,1.3,0.2,1.6,0.5s0.5,0.8,0.5,1.4c0,0.3-0.1,0.6-0.2,0.9
	c-0.1,0.3-0.3,0.6-0.5,0.8c-0.2,0.3-0.5,0.6-0.8,0.8c-0.3,0.3-0.7,0.6-1.1,0.9c-0.4,0.3-0.8,0.6-1.3,1c-0.5,0.4-0.9,0.8-1.3,1.3
	c-0.4,0.5-0.7,1-1,1.6s-0.4,1.3-0.4,2v1.1h9.8V102.2z M222.2,50.6c0.3-0.1,0.5-0.2,0.8-0.4c0.2-0.1,0.5-0.3,0.6-0.4v11.3h3.2v-15h-2
	c-0.6,0.5-1.3,0.9-2,1.3c-0.7,0.4-1.5,0.7-2.4,0.9V51c0.3,0,0.6-0.1,0.9-0.2C221.6,50.8,221.9,50.7,222.2,50.6z M268.9,223.9h-6.4
	v-2.5c0.6-0.6,1.2-1.3,1.8-2.1s1.2-1.5,1.8-2.3s1.1-1.6,1.6-2.4c0.5-0.8,0.9-1.6,1.2-2.3h3v9.2h1.8v2.4h-1.8v3h-3V223.9z
	 M268.9,221.5v-5.1c-0.2,0.4-0.5,0.9-0.8,1.3c-0.3,0.5-0.6,0.9-0.9,1.3s-0.6,0.9-0.9,1.3s-0.6,0.8-0.9,1.2H268.9z M164.3,282.1
	c0.2,0.6,0.3,1.2,0.3,1.9c0,0.7-0.1,1.4-0.4,2c-0.3,0.6-0.6,1.2-1.1,1.6c-0.5,0.5-1,0.8-1.6,1.1c-0.6,0.3-1.3,0.4-2,0.4
	c-0.8,0-1.6-0.2-2.2-0.5c-0.7-0.3-1.2-0.8-1.7-1.3c-0.5-0.6-0.8-1.3-1-2.1s-0.4-1.8-0.4-2.9c0-1.3,0.2-2.4,0.5-3.4
	c0.3-1,0.8-1.9,1.3-2.6c0.6-0.7,1.3-1.3,2.1-1.7s1.7-0.6,2.8-0.6c1.1,0,2,0.1,2.6,0.4v2.7c-0.7-0.4-1.6-0.6-2.4-0.6
	c-0.5,0-1,0.1-1.5,0.3c-0.4,0.2-0.8,0.5-1.1,0.9c-0.3,0.4-0.6,0.9-0.7,1.4c-0.2,0.5-0.3,1.2-0.3,1.8h0.1c0.7-1,1.7-1.4,3.1-1.4
	c0.6,0,1.2,0.1,1.7,0.3c0.5,0.2,0.9,0.5,1.3,0.9C163.8,281,164.1,281.5,164.3,282.1z M161.4,284.1c0-1.6-0.6-2.4-1.9-2.4
	c-0.3,0-0.6,0.1-0.8,0.2c-0.2,0.1-0.4,0.3-0.6,0.5c-0.2,0.2-0.3,0.4-0.4,0.7c-0.1,0.3-0.1,0.6-0.1,0.9c0,0.4,0,0.7,0.1,1
	s0.2,0.6,0.4,0.8c0.2,0.2,0.4,0.4,0.6,0.6s0.5,0.2,0.8,0.2s0.6-0.1,0.8-0.2s0.4-0.3,0.6-0.5c0.2-0.2,0.3-0.5,0.4-0.8
	S161.4,284.5,161.4,284.1z M164.4,39.3c0.2-0.2,0.5-0.4,0.8-0.7c0.3-0.2,0.6-0.5,0.9-0.7c0.5-0.3,1-0.7,1.4-1
	c0.5-0.4,0.8-0.8,1.2-1.2c0.3-0.4,0.6-0.9,0.8-1.4c0.2-0.5,0.3-1.1,0.3-1.8c0-0.6-0.1-1.2-0.3-1.7c-0.2-0.5-0.5-1-0.9-1.3
	c-0.4-0.4-0.9-0.6-1.5-0.8c-0.6-0.2-1.3-0.3-2-0.3c-1.6,0-3,0.4-4.3,1.2v2.8c1.2-1,2.4-1.5,3.6-1.5c0.7,0,1.3,0.2,1.6,0.5
	c0.4,0.3,0.5,0.8,0.5,1.4c0,0.3-0.1,0.6-0.2,0.9c-0.1,0.3-0.3,0.6-0.5,0.8c-0.2,0.3-0.5,0.6-0.8,0.8c-0.3,0.3-0.7,0.6-1.1,0.9
	c-0.4,0.3-0.8,0.6-1.3,1c-0.5,0.4-0.9,0.8-1.3,1.3c-0.4,0.5-0.7,1-1,1.6s-0.4,1.3-0.4,2v1.1h9.8v-2.7h-6.2c0-0.2,0.1-0.4,0.2-0.6
	C164,39.7,164.2,39.5,164.4,39.3z M320,160c0,0.1,0,0.3,0,0.4v0.9h0c-0.2,24.6-5.9,47.9-16.1,68.6l-0.3,0.6c0,0-1.4,2.8-2.1,4.2
	l-0.4,0.8c-0.6,1.1-1.3,2.3-1.9,3.4l-1.3,2.2c-0.7,1.1-1.3,2.2-2,3.3l-0.5,0.8c-0.8,1.3-1.7,2.6-2.5,3.9l-0.5,0.8
	c-1.9,2.8-3.9,5.6-6,8.3l-0.6,0.7c-1,1.2-1.9,2.4-2.9,3.6l-0.6,0.7c-2.2,2.6-4.5,5.2-6.9,7.6l-0.6,0.7c-1.1,1.1-2.2,2.2-3.3,3.3
	l-0.7,0.6c-2.5,2.4-5,4.7-7.6,6.9l-0.7,0.6c-1.2,1-2.4,2-3.6,2.9l-0.7,0.6c-2.7,2.1-5.5,4.1-8.3,6l-0.8,0.5
	c-1.3,0.9-2.6,1.7-3.9,2.5l-0.8,0.5c-1.1,0.7-2.2,1.3-3.3,2l-2.2,1.3c-1.1,0.6-2.2,1.3-3.4,1.9l-0.8,0.4c-1.4,0.7-2.8,1.4-4.2,2.1
	c0,0-7,3.3-10.2,4.6l0,0l-0.4,0.2c-15.1,6.1-31.4,10-48.3,11.2l0,0l-0.9,0.1c-1.5,0.1-3.1,0.2-4.7,0.2l-0.9,0
	c-1.3,0-2.6,0.1-3.9,0.1l-2.5,0c-1.3,0-3.9-0.1-3.9-0.1l-0.9,0l-4.7-0.2l-0.9-0.1c0,0-6.8-0.6-10.2-1.1l-0.9-0.1
	c0,0-21.5-4.2-31.6-7.9l-0.5-0.2c-0.1,0-0.2-0.1-0.3-0.1l-0.1,0l0,0c-1.5-0.5-2.9-1.1-4.4-1.7l-0.8-0.3c-3.2-1.3-6.3-2.7-9.4-4.2
	l-0.8-0.4c-1.4-0.7-2.8-1.4-4.2-2.1l-0.8-0.4c-1.1-0.6-2.3-1.3-3.4-1.9l-2.2-1.3c-1.1-0.7-2.2-1.3-3.3-2l-0.8-0.5
	c-1.3-0.8-2.6-1.7-3.9-2.5l-0.8-0.5c-2.8-1.9-5.6-3.9-8.3-6l-0.7-0.6c-1.2-1-2.4-1.9-3.6-2.9l-0.7-0.6c-2.6-2.2-5.2-4.5-7.6-6.9
	l-0.7-0.6c-1.1-1.1-2.2-2.2-3.3-3.3l-0.6-0.7c-2.4-2.5-4.7-5-6.9-7.6l-0.6-0.7c-1-1.2-2-2.4-2.9-3.6l-0.6-0.7
	c-2.1-2.7-4.1-5.5-6-8.3l-0.5-0.8c-0.9-1.3-1.7-2.6-2.5-3.9l-0.5-0.8c-0.7-1.1-1.3-2.2-2-3.3l-1.3-2.2c-0.6-1.1-1.3-2.2-1.9-3.4
	l-0.4-0.8c-0.7-1.4-1.4-2.8-2.1-4.2l-0.4-0.8c-1.5-3.1-2.9-6.2-4.2-9.4l-0.3-0.8c-0.6-1.4-1.1-2.9-1.7-4.4l-0.3-0.9
	c-1.2-3.2-2.2-6.5-3.2-9.8l-0.3-0.9c-0.4-1.5-0.8-3-1.2-4.5l-0.2-0.9c-0.8-3.3-1.5-6.6-2.1-10l-0.1-0.9c-0.3-1.5-0.5-3.1-0.7-4.6
	l-0.1-0.9c-0.5-3.4-0.8-6.8-1.1-10.2l-0.1-0.9c-0.1-1.5-0.2-3.1-0.2-4.7l0,0l0-0.9l0,0c0-1.3-0.1-2.6-0.1-3.9l0-2.5
	c0-1.3,0-2.6,0.1-3.8l0-0.9c0.1-1.6,0.3-5.6,0.3-5.6c0.2-3.4,0.6-6.8,1.1-10.2l0.1-0.9c0.2-1.5,0.5-3.1,0.7-4.6l0.1-0.9
	c0.6-3.4,1.3-6.7,2.1-10l0.2-0.9c0.4-1.5,0.8-3,1.2-4.5l0.3-0.9c1-3.3,2-6.5,3.2-9.8l0.3-0.9c0.5-1.5,1.1-2.9,1.7-4.4l0.3-0.8
	c1.3-3.2,2.7-6.3,4.2-9.4l0.4-0.8c0.7-1.4,1.4-2.8,2.1-4.2l0.4-0.8c0.6-1.1,1.3-2.3,1.9-3.4l1.3-2.2c0.7-1.1,1.3-2.2,2-3.3l0.5-0.8
	c0.8-1.3,1.7-2.6,2.5-3.9l0.5-0.8c1.9-2.8,3.9-5.6,6-8.3l0.6-0.7c1-1.2,1.9-2.4,2.9-3.6l0.6-0.7c2.2-2.6,4.5-5.2,6.9-7.6l0.6-0.7
	c1.1-1.1,2.2-2.2,3.3-3.3l0.7-0.6c2.5-2.4,5-4.7,7.6-6.9l0.7-0.6c1.2-1,2.4-2,3.6-2.9l0.7-0.6c2.7-2.1,5.5-4.1,8.3-6l0.8-0.5
	c1.3-0.9,2.6-1.7,3.9-2.5l0.8-0.5c1.1-0.7,2.2-1.4,3.3-2l2.2-1.3c1.1-0.6,2.2-1.3,3.3-1.9l0.8-0.4c1.4-0.7,2.8-1.4,4.2-2.1l0,0
	l0.8-0.4l0,0c3.1-1.5,6.2-2.9,9.4-4.2l0.8-0.3c1.4-0.6,2.9-1.1,4.4-1.7l0,0l0.1-0.1c0.1,0,0.2-0.1,0.2-0.1l0.5-0.2l0,0
	c10.1-3.7,20.7-6.3,31.6-7.9c0,0,7.7-1,11.1-1.2l0,0l0.9-0.1c1.5-0.1,5.6-0.3,5.6-0.3c1.3,0,2.6-0.1,3.9-0.1l2.5,0
	c1.3,0,2.6,0,3.8,0.1l0.9,0c0,0,3.1,0.1,4.7,0.3l0.9,0.1l0,0c17,1.2,33.3,5.1,48.4,11.2l0.4,0.1l0,0c3.2,1.3,6.3,2.7,9.4,4.2
	l0.8,0.4c1.4,0.7,2.8,1.4,4.2,2.1l0.8,0.4c1.2,0.6,2.3,1.3,3.4,1.9l2.2,1.3c1.1,0.6,2.2,1.3,3.3,2l0.8,0.5c1.3,0.8,2.6,1.7,3.9,2.5
	l0.8,0.5c2.8,1.9,5.6,3.9,8.3,6l0.7,0.6c1.2,1,2.4,1.9,3.6,2.9l0.7,0.6c2.6,2.2,5.2,4.5,7.6,6.9l0.7,0.6c1.1,1.1,2.2,2.2,3.3,3.3
	l0.6,0.7c2.4,2.5,4.7,5,6.9,7.6l0.6,0.7c1,1.2,2,2.4,2.9,3.6l0.6,0.7c2.1,2.7,4.1,5.5,6,8.3l0.5,0.8c0.9,1.3,1.7,2.6,2.5,3.9
	l0.5,0.8c0.7,1.1,1.4,2.2,2,3.3l1.3,2.2c0.6,1.1,1.3,2.2,1.9,3.3l0.4,0.8c0.7,1.4,1.4,2.8,2.1,4.2l0,0l0.3,0.7
	c10.1,20.8,15.9,44.1,16.1,68.7h0v0.9C320,159.8,320,159.9,320,160z M317.7,149.4l-2.1,0.1c0.1,1.5,0.2,3,0.2,4.5l2.1-0.1
	C317.9,152.5,317.8,150.9,317.7,149.4z M317.3,144.5l-2.1,0.2c0.1,1.3,0.2,2.6,0.3,3.9l2.1-0.1C317.5,147.2,317.4,145.9,317.3,144.5
	z M316.6,138.4l-2.1,0.3c0.2,1.3,0.3,2.7,0.5,4l2.1-0.2C316.9,141.2,316.8,139.8,316.6,138.4z M315.7,133l-2.1,0.4
	c0.3,1.5,0.5,3,0.7,4.5l2.1-0.3C316.2,136,316,134.5,315.7,133z M314.8,128.2l-2.1,0.4c0.3,1.3,0.5,2.6,0.7,3.8l2.1-0.4
	C315.3,130.8,315.1,129.5,314.8,128.2z M313.5,122.2l-2,0.5c0.3,1.3,0.6,2.6,0.9,3.9l2.1-0.4C314.1,124.9,313.8,123.5,313.5,122.2z
	 M312.1,116.9l-2,0.6c0.4,1.4,0.8,2.9,1.2,4.4l2-0.5C312.9,119.8,312.5,118.3,312.1,116.9z M310.6,112.2l-2,0.7
	c0.4,1.2,0.8,2.5,1.1,3.7l2-0.6C311.4,114.7,311.1,113.4,310.6,112.2z M308.7,106.4l-2,0.7c0.5,1.3,0.9,2.5,1.3,3.8l2-0.7
	C309.6,109,309.1,107.7,308.7,106.4z M306.7,101.2l-2,0.8c0.6,1.4,1.1,2.8,1.6,4.2l2-0.7C307.8,104.1,307.3,102.6,306.7,101.2z
	 M304.8,96.7l-1.9,0.9c0.5,1.2,1,2.4,1.5,3.6l2-0.8C305.9,99.1,305.3,97.9,304.8,96.7z M302.2,91.1l-1.9,0.9
	c0.6,1.2,1.2,2.4,1.7,3.7l1.9-0.9C303.4,93.6,302.8,92.4,302.2,91.1z M299.7,86.2l-1.9,1c0.7,1.3,1.4,2.7,2.1,4l1.9-0.9
	C301.1,88.9,300.4,87.6,299.7,86.2z M297.5,82.1l-1.8,1.1c0.6,1.1,1.2,2.1,1.8,3.2l1.9-1C298.7,84.3,298.1,83.2,297.5,82.1z
	 M294.2,76.7l-1.8,1.1c0.7,1.1,1.3,2.1,2,3.2l1.8-1.1C295.6,78.8,294.9,77.7,294.2,76.7z M291.2,72l-1.7,1.2
	c0.8,1.3,1.7,2.5,2.5,3.8l1.8-1.1C292.9,74.6,292.1,73.3,291.2,72z M288.4,68l-1.7,1.2c0.8,1.1,1.5,2.1,2.2,3.2l1.7-1.2
	C290,70.2,289.2,69.1,288.4,68z M284.8,63.1l-1.7,1.3c0.8,1.1,1.6,2.1,2.5,3.2l1.7-1.2C286.4,65.3,285.6,64.2,284.8,63.1z
	 M281.3,58.8l-1.6,1.4c1,1.2,1.9,2.3,2.9,3.5l1.7-1.3C283.2,61.2,282.3,60,281.3,58.8z M278.3,55.4l-1.6,1.4
	c0.8,0.9,1.6,1.8,2.3,2.7l1.6-1.4C279.9,57.2,279.1,56.3,278.3,55.4z M273.9,50.6l-1.5,1.5c1,1.1,2,2.1,3,3.2l1.6-1.4
	C276,52.8,275,51.7,273.9,50.6z M270,46.7l-1.5,1.5c1.1,1.1,2.1,2.1,3.2,3.2l1.5-1.5C272.2,48.9,271.2,47.8,270,46.7z M265.4,45.2
	c0.9,0.8,1.7,1.6,2.6,2.4l1.5-1.5c-0.9-0.8-1.7-1.6-2.6-2.5L265.4,45.2z M261.9,39.3l-1.4,1.6c1.1,1,2.2,1.9,3.3,2.9l1.4-1.6
	C264.2,41.2,263,40.3,261.9,39.3z M257.6,35.8l-1.3,1.7c1.2,0.9,2.4,1.9,3.5,2.9l1.4-1.6C260,37.7,258.8,36.8,257.6,35.8z
	 M252.8,34.8c0.9,0.7,1.9,1.4,2.8,2.1l1.3-1.7c-0.9-0.7-1.9-1.4-2.8-2.2L252.8,34.8z M248.7,29.3l-1.2,1.7c1.2,0.8,2.5,1.7,3.7,2.6
	l1.2-1.7C251.2,31,250,30.2,248.7,29.3z M244.1,26.3l-1.1,1.8c1.3,0.8,2.5,1.6,3.8,2.5l1.2-1.7C246.7,27.9,245.4,27.1,244.1,26.3z
	 M239.3,25.8c1,0.6,2,1.2,3,1.8l1.1-1.8c-1-0.6-2-1.2-3-1.8L239.3,25.8z M234.6,20.7l-1,1.9c1.1,0.6,2.2,1.2,3.3,1.8l1.1-1.8
	C236.8,21.9,235.7,21.3,234.6,20.7z M229.7,18.2l-0.9,1.9c1.4,0.7,2.7,1.4,4,2.1l1-1.9C232.4,19.6,231.1,18.9,229.7,18.2z
	 M224.8,18.2c1,0.5,2.1,1,3.1,1.5l0.9-1.9c-1.1-0.5-2.1-1-3.2-1.5L224.8,18.2z M218.8,15.6c1.4,0.6,2.8,1.2,4.2,1.8l0.9-1.9
	c-1.4-0.6-2.8-1.2-4.2-1.8L218.8,15.6z M213.8,13.7c1.4,0.5,2.8,1.1,4.2,1.6l0.8-2c-1.4-0.6-2.9-1.1-4.3-1.7L213.8,13.7z
	 M209.7,12.2c1.1,0.4,2.2,0.7,3.2,1.1l0.7-2c-1.1-0.4-2.2-0.8-3.3-1.2L209.7,12.2z M203.4,10.3c1.5,0.4,2.9,0.9,4.3,1.3l0.7-2
	c-1.5-0.5-2.9-0.9-4.4-1.3L203.4,10.3z M198.2,8.8c1.5,0.4,2.9,0.8,4.4,1.2l0.6-2c-1.5-0.4-3-0.8-4.4-1.2L198.2,8.8z M193.9,7.8
	c1.1,0.2,2.2,0.5,3.3,0.8l0.5-2c-1.1-0.3-2.3-0.5-3.4-0.8L193.9,7.8z M187.5,6.5c1.5,0.3,3,0.5,4.5,0.9l0.4-2.1
	c-1.5-0.3-3-0.6-4.5-0.9L187.5,6.5z M182.1,5.7c1.5,0.2,3,0.5,4.5,0.7l0.4-2.1c-1.5-0.3-3-0.5-4.5-0.7L182.1,5.7z M177.9,5.1
	c1.1,0.1,2.3,0.3,3.4,0.4l0.3-2.1c-1.2-0.2-2.3-0.3-3.5-0.4L177.9,5.1z M171.3,4.5c1.5,0.1,3,0.2,4.5,0.4l0.2-2.1
	c-1.5-0.2-3.1-0.3-4.6-0.4L171.3,4.5z M165.9,4.2c1.5,0.1,3,0.1,4.5,0.2l0.1-2.1c-1.5-0.1-3.1-0.2-4.6-0.2L165.9,4.2z M161.3,4.1
	c1.2,0,2.5,0,3.7,0.1l0.1-2.1c-1.2,0-2.5-0.1-3.8-0.1V4.1z M154.9,2.1l0.1,2.1c1.3,0,2.5-0.1,3.8-0.1V2C157.5,2,156.2,2.1,154.9,2.1
	z M149.4,2.4l0.1,2.1c1.5-0.1,3-0.2,4.5-0.2L154,2.1C152.5,2.2,151,2.3,149.4,2.4z M144.6,2.8l0.2,2.1c1.3-0.1,2.6-0.2,3.9-0.3
	l-0.1-2.1C147.2,2.5,145.9,2.6,144.6,2.8z M138.5,3.5l0.3,2.1c1.3-0.2,2.7-0.4,4-0.5L142.5,3C141.2,3.1,139.8,3.3,138.5,3.5z
	 M133,4.3l0.4,2.1c1.5-0.3,3-0.5,4.5-0.7l-0.3-2.1C136,3.8,134.5,4.1,133,4.3z M128.2,5.2l0.4,2.1c1.3-0.3,2.5-0.5,3.8-0.7l-0.4-2.1
	C130.8,4.7,129.5,5,128.2,5.2z M122.2,6.6l0.5,2c1.3-0.3,2.6-0.6,3.9-0.9l-0.4-2.1C124.9,5.9,123.6,6.3,122.2,6.6z M116.9,8l0.6,2
	c1.4-0.4,2.9-0.8,4.4-1.2l-0.5-2C119.8,7.2,118.4,7.6,116.9,8z M112.2,9.4l0.7,2c1.2-0.4,2.5-0.8,3.7-1.1l-0.6-2
	C114.7,8.6,113.5,9,112.2,9.4z M106.4,11.4l0.7,2c1.3-0.5,2.6-0.9,3.8-1.3l-0.7-2C109,10.5,107.7,10.9,106.4,11.4z M101.2,13.4
	l0.8,2c1.4-0.6,2.8-1.1,4.2-1.6l-0.7-2C104.1,12.2,102.7,12.8,101.2,13.4z M96.8,15.2l0.9,1.9c1.2-0.5,2.4-1,3.6-1.5l-0.8-2
	C99.2,14.2,98,14.7,96.8,15.2z M91.2,17.8l0.9,1.9c1.2-0.6,2.5-1.2,3.7-1.7l-0.9-1.9C93.7,16.6,92.4,17.2,91.2,17.8z M86.2,20.3
	l1,1.9c1.3-0.7,2.7-1.4,4-2.1l-0.9-1.9C89,18.9,87.6,19.6,86.2,20.3z M82.1,22.6l1.1,1.8c1.1-0.6,2.1-1.2,3.2-1.8l-1-1.9
	C84.3,21.3,83.2,22,82.1,22.6z M76.7,25.8l1.1,1.8c1.1-0.7,2.1-1.3,3.2-2L80,23.8C78.9,24.5,77.8,25.2,76.7,25.8z M72.1,28.8
	l1.2,1.7c1.3-0.8,2.5-1.7,3.8-2.5l-1.1-1.8C74.6,27.1,73.3,28,72.1,28.8z M68.1,31.6l1.2,1.7c1-0.7,2.1-1.5,3.1-2.2l-1.2-1.7
	C70.2,30.1,69.2,30.8,68.1,31.6z M63.1,35.3l1.3,1.7c1.1-0.8,2.2-1.7,3.3-2.5l-1.2-1.7C65.3,33.6,64.2,34.4,63.1,35.3z M58.9,38.8
	l1.4,1.6c1.2-1,2.3-1.9,3.5-2.9l-1.3-1.7C61.2,36.8,60,37.8,58.9,38.8z M54.9,42.1l1.4,1.6c1-0.9,2.1-1.8,3.2-2.7l-1.4-1.6
	C57.1,40.3,56,41.2,54.9,42.1z M50.6,46.1l1.5,1.5c0.9-0.9,1.8-1.7,2.8-2.6l-1.4-1.6C52.5,44.3,51.6,45.2,50.6,46.1z M46.7,50
	l1.5,1.5c1.1-1.1,2.1-2.1,3.2-3.2L50,46.8C48.9,47.8,47.8,48.9,46.7,50z M43.2,53.8l1.6,1.4c0.9-1,1.9-2.1,2.9-3.1l-1.5-1.5
	C45.1,51.7,44.1,52.7,43.2,53.8z M39.3,58.2l1.6,1.4c0.8-1,1.6-1.9,2.5-2.8l-1.6-1.4C41,56.2,40.2,57.2,39.3,58.2z M35.9,62.4
	l1.7,1.3c0.9-1.2,1.9-2.4,2.8-3.5l-1.6-1.4C37.8,60.1,36.8,61.2,35.9,62.4z M32.7,66.6l1.7,1.2c0.8-1.1,1.7-2.3,2.6-3.4l-1.7-1.3
	C34.4,64.3,33.5,65.4,32.7,66.6z M29.3,71.3l1.7,1.2c0.7-1,1.4-2,2.1-3.1l-1.7-1.2C30.8,69.2,30,70.3,29.3,71.3z M26.3,75.9l1.8,1.1
	c0.8-1.3,1.6-2.5,2.5-3.8l-1.7-1.2C28,73.4,27.1,74.6,26.3,75.9z M23.9,79.9l1.8,1.1c0.6-1.1,1.3-2.1,1.9-3.2l-1.8-1.1
	C25.2,77.8,24.5,78.9,23.9,79.9z M20.8,85.5l1.9,1c0.6-1.1,1.2-2.2,1.8-3.2l-1.8-1.1C22,83.3,21.4,84.4,20.8,85.5z M18.2,90.4
	l1.9,0.9c0.7-1.4,1.4-2.7,2.1-4l-1.9-1C19.6,87.6,18.9,89,18.2,90.4z M16,95.1l1.9,0.9c0.6-1.3,1.2-2.6,1.8-3.9l-1.9-0.9
	C17.2,92.5,16.6,93.8,16,95.1z M13.7,100.4l2,0.8c0.5-1.1,0.9-2.3,1.4-3.4L15.2,97C14.7,98.1,14.2,99.3,13.7,100.4z M11.7,105.6
	l2,0.7c0.5-1.4,1.1-2.8,1.6-4.2l-2-0.8C12.8,102.7,12.2,104.1,11.7,105.6z M10,110.5l2,0.7c0.4-1.4,0.9-2.7,1.4-4l-2-0.7
	C10.9,107.8,10.4,109.2,10,110.5z M8.3,116l2,0.6c0.3-1.2,0.7-2.4,1.1-3.5l-2-0.7C9,113.6,8.6,114.8,8.3,116z M6.8,121.4l2,0.5
	c0.4-1.5,0.8-2.9,1.2-4.4l-2-0.6C7.6,118.4,7.2,119.9,6.8,121.4z M5.6,126.5l2.1,0.4c0.3-1.4,0.6-2.8,1-4.2l-2-0.5
	C6.3,123.7,5.9,125.1,5.6,126.5z M4.5,132.1l2.1,0.4c0.2-1.2,0.4-2.4,0.7-3.6l-2.1-0.4C4.9,129.7,4.7,130.9,4.5,132.1z M3.6,137.6
	l2.1,0.3c0.2-1.5,0.4-3,0.7-4.5L4.3,133C4.1,134.6,3.9,136.1,3.6,137.6z M3,142.8l2.1,0.2c0.2-1.4,0.3-2.8,0.5-4.3l-2.1-0.3
	C3.3,139.9,3.1,141.4,3,142.8z M2.5,148.6l2.1,0.1c0.1-1.2,0.2-2.4,0.3-3.7l-2.1-0.2C2.6,146.1,2.5,147.3,2.5,148.6z M2.2,154.1
	l2.1,0.1c0.1-1.5,0.1-3,0.2-4.5l-2.1-0.1C2.3,151,2.2,152.5,2.2,154.1z M2,158.7l2.1,0c0-1.2,0-2.5,0.1-3.7L2.1,155
	C2.1,156.2,2.1,157.5,2,158.7z M2.1,165.1l2.1-0.1c0-1.2-0.1-2.5-0.1-3.8l-2.1,0C2.1,162.5,2.1,163.8,2.1,165.1z M2.4,170.6l2.1-0.1
	c-0.1-1.5-0.2-3-0.2-4.5L2.2,166C2.2,167.5,2.3,169.1,2.4,170.6z M2.8,175.5l2.1-0.2c-0.1-1.3-0.2-2.6-0.3-4l-2.1,0.1
	C2.6,172.9,2.7,174.2,2.8,175.5z M3.5,181.6l2.1-0.3c-0.2-1.3-0.3-2.6-0.5-3.9L3,177.6C3.2,178.9,3.3,180.2,3.5,181.6z M4.4,187
	l2.1-0.4c-0.3-1.5-0.5-3-0.7-4.5l-2.1,0.3C3.9,184,4.1,185.5,4.4,187z M5.3,191.9l2.1-0.4c-0.3-1.3-0.5-2.6-0.7-3.9l-2.1,0.4
	C4.7,189.2,5,190.6,5.3,191.9z M6.6,197.8l2-0.5c-0.3-1.3-0.6-2.6-0.9-3.9l-2.1,0.4C6,195.2,6.3,196.5,6.6,197.8z M8,203.1l2-0.6
	c-0.4-1.4-0.8-2.9-1.2-4.4l-2,0.5C7.2,200.2,7.6,201.7,8,203.1z M11.5,207.2c-0.4-1.3-0.8-2.5-1.2-3.8l-2,0.6
	c0.4,1.3,0.8,2.6,1.2,3.9L11.5,207.2z M13.4,212.9c-0.5-1.2-0.9-2.5-1.3-3.7l-2,0.7c0.4,1.3,0.9,2.6,1.3,3.8L13.4,212.9z
	 M13.4,218.8l2-0.8c-0.6-1.4-1.1-2.8-1.6-4.2l-2,0.7C12.3,215.9,12.8,217.4,13.4,218.8z M17.2,222.5c-0.5-1.2-1-2.4-1.6-3.7l-2,0.8
	c0.5,1.3,1,2.5,1.6,3.7L17.2,222.5z M17.8,228.9l1.9-0.9c-0.6-1.2-1.1-2.4-1.7-3.6l-1.9,0.9C16.7,226.4,17.3,227.7,17.8,228.9z
	 M20.3,233.8l1.9-1c-0.7-1.3-1.4-2.7-2.1-4l-1.9,0.9C18.9,231.1,19.6,232.4,20.3,233.8z M22.6,237.9l1.8-1.1
	c-0.6-1.1-1.2-2.2-1.8-3.2l-1.9,1C21.4,235.7,22,236.8,22.6,237.9z M25.8,243.3l1.8-1.1c-0.7-1.1-1.3-2.1-1.9-3.2l-1.8,1.1
	C24.5,241.2,25.2,242.3,25.8,243.3z M28.8,248l1.7-1.2c-0.8-1.3-1.7-2.5-2.5-3.8l-1.8,1.1C27.2,245.4,28,246.7,28.8,248z M31.7,252
	l1.7-1.2c-0.8-1.1-1.5-2.2-2.3-3.3l-1.7,1.2C30.1,249.8,30.9,250.9,31.7,252z M35.3,256.9l1.7-1.3c-0.8-1-1.6-2.1-2.4-3.2l-1.7,1.2
	C33.7,254.8,34.5,255.8,35.3,256.9z M38.8,261.2l1.6-1.4c-1-1.2-1.9-2.3-2.9-3.5l-1.7,1.3C36.8,258.8,37.8,260,38.8,261.2z
	 M42.2,265.2l1.6-1.4c-1-1.1-1.9-2.2-2.8-3.3l-1.6,1.4C40.3,263,41.3,264.1,42.2,265.2z M46.1,269.4l1.5-1.5
	c-0.8-0.9-1.7-1.8-2.5-2.6l-1.6,1.4C44.4,267.6,45.3,268.5,46.1,269.4z M50,273.3l1.5-1.5c-1.1-1.1-2.1-2.1-3.2-3.2l-1.5,1.5
	C47.8,271.1,48.9,272.2,50,273.3z M55.3,275.4c-1.1-1-2.1-2-3.2-3l-1.5,1.5c1.1,1,2.1,2,3.2,3L55.3,275.4z M58.2,280.7l1.4-1.6
	c-0.9-0.8-1.8-1.6-2.7-2.4l-1.4,1.6C56.3,279.1,57.2,279.9,58.2,280.7z M62.5,284.2l1.3-1.7c-1.2-0.9-2.4-1.9-3.5-2.8l-1.4,1.6
	C60.1,282.3,61.3,283.2,62.5,284.2z M68,285.7c-1.2-0.9-2.3-1.8-3.5-2.7l-1.3,1.7c1.2,0.9,2.4,1.8,3.6,2.7L68,285.7z M71.3,290.7
	l1.2-1.7c-1-0.7-2-1.3-2.9-2l-1.2,1.7C69.3,289.3,70.3,290,71.3,290.7z M76,293.7l1.1-1.8c-1.3-0.8-2.5-1.6-3.8-2.5l-1.2,1.7
	C73.4,292.1,74.7,292.9,76,293.7z M81,294.3c-1.1-0.6-2.1-1.3-3.2-1.9l-1.1,1.8c1.1,0.7,2.2,1.3,3.2,2L81,294.3z M85.5,299.3l1-1.9
	c-1-0.6-2.1-1.1-3.1-1.7l-1.1,1.8C83.4,298.1,84.4,298.7,85.5,299.3z M90.4,301.8l0.9-1.9c-1.4-0.7-2.7-1.4-4-2.1l-1,1.9
	C87.6,300.4,89,301.1,90.4,301.8z M96.1,302.2c-1.4-0.6-2.7-1.2-4-1.9l-0.9,1.9c1.4,0.7,2.7,1.3,4.1,1.9L96.1,302.2z M101.2,304.4
	c-1.1-0.4-2.2-0.9-3.2-1.4l-0.9,1.9c1.1,0.5,2.2,0.9,3.3,1.4L101.2,304.4z M106.3,306.3c-1.4-0.5-2.8-1.1-4.2-1.6l-0.8,2
	c1.4,0.6,2.9,1.1,4.3,1.7L106.3,306.3z M111.4,308.1c-1.4-0.5-2.8-1-4.2-1.5l-0.7,2c1.4,0.5,2.8,1,4.3,1.5L111.4,308.1z
	 M116.6,309.8c-1.1-0.3-2.2-0.7-3.3-1l-0.7,2c1.1,0.4,2.3,0.7,3.4,1L116.6,309.8z M121.9,311.2c-1.5-0.4-2.9-0.8-4.4-1.2l-0.6,2
	c1.5,0.4,3,0.8,4.4,1.2L121.9,311.2z M127.1,312.4c-1.5-0.3-2.9-0.7-4.4-1l-0.5,2c1.5,0.4,2.9,0.7,4.4,1L127.1,312.4z M132.5,313.5
	c-1.1-0.2-2.3-0.4-3.4-0.6l-0.4,2.1c1.2,0.2,2.3,0.5,3.5,0.7L132.5,313.5z M137.9,314.3c-1.5-0.2-3-0.4-4.5-0.7l-0.4,2.1
	c1.5,0.3,3,0.5,4.5,0.7L137.9,314.3z M143.2,315c-1.5-0.2-3-0.3-4.4-0.6l-0.3,2.1c1.5,0.2,3,0.4,4.5,0.6L143.2,315z M148.7,315.5
	c-1.2-0.1-2.3-0.2-3.5-0.3l-0.2,2.1c1.2,0.1,2.3,0.2,3.5,0.3L148.7,315.5z M154.1,315.8c-1.5-0.1-3-0.1-4.5-0.2l-0.1,2.1
	c1.5,0.1,3.1,0.2,4.6,0.2L154.1,315.8z M158.8,315.9c-1.2,0-2.5,0-3.7-0.1l-0.1,2.1c1.3,0,2.5,0.1,3.8,0.1V315.9z M165.1,317.9
	l-0.1-2.1c-1.2,0-2.5,0.1-3.7,0.1v2.1C162.6,318,163.8,318,165.1,317.9z M170.6,317.7l-0.1-2.1c-1.5,0.1-3,0.2-4.5,0.2l0.1,2.1
	C167.5,317.8,169.1,317.8,170.6,317.7z M175.6,317.3l-0.2-2.1c-1.3,0.1-2.7,0.2-4,0.3l0.1,2.1C172.9,317.5,174.2,317.4,175.6,317.3z
	 M181.6,316.5l-0.3-2.1c-1.3,0.2-2.6,0.3-3.9,0.5l0.2,2.1C178.9,316.9,180.3,316.7,181.6,316.5z M187,315.7l-0.4-2.1
	c-1.5,0.3-3,0.5-4.5,0.7l0.3,2.1C184,316.2,185.5,316,187,315.7z M192,314.8l-0.4-2.1c-1.3,0.3-2.6,0.5-4,0.8l0.4,2.1
	C189.3,315.3,190.6,315.1,192,314.8z M197.8,313.4l-0.5-2c-1.3,0.3-2.5,0.6-3.8,0.9l0.4,2.1C195.2,314.1,196.5,313.8,197.8,313.4z
	 M203.2,312l-0.6-2c-1.4,0.4-2.9,0.8-4.4,1.2l0.5,2C200.2,312.8,201.7,312.4,203.2,312z M208,310.6l-0.7-2c-1.3,0.4-2.6,0.8-3.9,1.2
	l0.6,2C205.4,311.4,206.7,311,208,310.6z M213.7,308.6l-0.7-2c-1.2,0.4-2.5,0.9-3.7,1.3l0.7,2C211.2,309.5,212.4,309.1,213.7,308.6z
	 M218.8,306.7l-0.8-2c-1.4,0.6-2.8,1.1-4.2,1.6l0.7,2C216,307.8,217.4,307.2,218.8,306.7z M223.5,304.7l-0.9-1.9
	c-1.2,0.5-2.5,1.1-3.7,1.6l0.8,2C220.9,305.8,222.2,305.3,223.5,304.7z M228.9,302.2l-0.9-1.9c-1.2,0.6-2.3,1.1-3.5,1.7l0.9,1.9
	C226.5,303.4,227.7,302.8,228.9,302.2z M233.8,299.7l-1-1.9c-1.3,0.7-2.7,1.4-4,2.1l0.9,1.9C231.1,301.1,232.5,300.4,233.8,299.7z
	 M237.9,297.4l-1.1-1.8c-1.1,0.6-2.2,1.2-3.3,1.8l1,1.9C235.7,298.7,236.8,298.1,237.9,297.4z M241.2,290.8l-3.6-5.8l0.8-0.5
	l3.6,5.7c1.3-0.8,2.5-1.6,3.7-2.4l-3.8-5.6l0.8-0.5l3.8,5.6c1.1-0.8,2.2-1.5,3.3-2.3l-7.1-9.7l1.6-1.2l7.1,9.7c1-0.8,2-1.5,3-2.3
	l-4.2-5.3l0.7-0.6l4.2,5.3c1.2-0.9,2.3-1.9,3.5-2.8l-4.3-5.2l0.7-0.6l4.3,5.2c0.9-0.8,1.9-1.6,2.8-2.4l-7.8-8.6l1.5-1.4l7.8,8.7
	c1-0.9,2-1.9,3-2.8l-4.7-4.9l0.7-0.6l4.7,4.9c1.1-1,2.1-2.1,3.2-3.2l-4.9-4.7l0.6-0.7l4.9,4.7c0.8-0.9,1.7-1.8,2.5-2.7l-8.7-7.8
	l1.4-1.5l8.7,7.8c0.9-1,1.8-2.1,2.7-3.1l-5.2-4.3l0.6-0.7l5.2,4.3c1-1.1,1.9-2.3,2.8-3.5l-5.3-4.2l0.6-0.7l5.3,4.2
	c0.7-1,1.5-1.9,2.2-2.9l-9.5-6.9l1.2-1.6l9.5,6.9c0.8-1.1,1.6-2.3,2.4-3.4l-5.6-3.8l0.5-0.8l5.6,3.8c0.8-1.2,1.6-2.5,2.4-3.7
	l-5.8-3.6l0.5-0.8l5.8,3.6c0.6-1,1.3-2.1,1.9-3.1l-10.2-5.9l0,0l-4.7-2.7l1.3-2.2l14.9,8.6c0.6-1.1,1.2-2.1,1.8-3.2l-6-3.2l0.4-0.8
	l6,3.2c0.7-1.3,1.4-2.6,2-4l-6.1-3l0.4-0.8l6.1,3c0.5-1.1,1-2.2,1.5-3.3l-10.8-4.8l0.8-1.8L301,222c0.6-1.3,1.1-2.6,1.6-3.9
	l-6.3-2.6l0.3-0.8l6.3,2.6c0.6-1.4,1.1-2.8,1.6-4.2l-6.4-2.3l0.3-0.9l6.4,2.3c0.4-1.1,0.8-2.3,1.2-3.4l-11.3-3.7l0.6-1.9l11.3,3.7
	c0.4-1.3,0.8-2.7,1.2-4.1l-6.6-1.9l0.3-0.9l6.6,1.9c0.4-1.4,0.8-2.9,1.2-4.3l-6.6-1.7l0.2-0.9l6.7,1.7c0.3-1.2,0.6-2.3,0.8-3.5
	l-11.6-2.5l0.4-2l11.6,2.5c0.3-1.4,0.5-2.8,0.8-4.2l-6.7-1.2l0.2-0.9l6.7,1.2c0.3-1.5,0.5-2.9,0.7-4.4l-6.8-1l0.1-0.9l6.8,1
	c0.2-1.2,0.3-2.4,0.4-3.5l-11.8-1.2l0.2-2l11.9,1.2c0.1-1.4,0.3-2.8,0.4-4.2l-6.8-0.5l0.1-0.9l6.8,0.5c0.1-1.5,0.2-3,0.2-4.5
	l-6.8-0.2l0-0.9l6.8,0.2c0-1.2,0.1-2.4,0.1-3.6l-17.2,0v-2.5l17.2,0c0-1.2,0-2.5-0.1-3.7l-6.8,0.2l0-0.9l6.8-0.2
	c-0.1-1.5-0.1-3-0.2-4.5l-6.8,0.5l-0.1-0.9l6.8-0.5c-0.1-1.3-0.2-2.6-0.3-3.8l-11.9,1.2l-0.2-2l11.9-1.2c-0.1-1.3-0.3-2.6-0.5-3.9
	l-6.8,1l-0.1-0.9l6.8-1c-0.2-1.5-0.4-2.9-0.7-4.4l-6.7,1.2l-0.2-0.9l6.8-1.2c-0.2-1.3-0.5-2.5-0.7-3.8l-11.7,2.5l-0.4-2l11.7-2.5
	c-0.3-1.3-0.6-2.6-0.9-3.9l-6.6,1.7l-0.2-0.9l6.6-1.7c-0.4-1.4-0.7-2.9-1.2-4.3l-6.6,1.9l-0.3-0.9l6.6-1.9c-0.4-1.2-0.7-2.5-1.1-3.7
	l-11.4,3.7l-0.6-1.9l11.4-3.7c-0.4-1.3-0.9-2.5-1.3-3.8l-6.4,2.3l-0.3-0.9l6.4-2.3c-0.5-1.4-1.1-2.8-1.6-4.2l-6.3,2.6l-0.3-0.8
	l6.3-2.6c-0.5-1.2-1-2.4-1.5-3.5l-10.9,4.9l-0.8-1.8l10.9-4.9c-0.5-1.2-1.1-2.4-1.7-3.6l-6.1,3l-0.4-0.8l6.1-3c-0.7-1.3-1.3-2.7-2-4
	l-6,3.2l-0.4-0.8l6-3.2c-0.6-1.1-1.2-2.1-1.8-3.2l-14.9,8.6l-1.3-2.2l14.8-8.6c-0.6-1.1-1.3-2.1-1.9-3.2l-5.8,3.6l-0.5-0.8l5.8-3.6
	c-0.8-1.3-1.6-2.5-2.4-3.7l-5.6,3.8l-0.5-0.8l5.6-3.8c-0.7-1.1-1.4-2.1-2.2-3.1l-9.6,7l-1.2-1.6l9.6-7c-0.8-1.1-1.6-2.1-2.4-3.2
	l-5.3,4.2l-0.6-0.7l5.3-4.2c-0.9-1.2-1.9-2.3-2.8-3.5l-5.2,4.3l-0.6-0.7l5.2-4.3c-0.8-0.9-1.5-1.8-2.3-2.6l-8.6,7.7l-1.4-1.5
	l8.6-7.7c-1-1.1-2-2.1-3-3.2l-4.9,4.7l-0.6-0.7l4.9-4.7c-1-1.1-2.1-2.1-3.2-3.2l-4.7,4.9l-0.7-0.6l4.7-4.9c-0.8-0.8-1.7-1.6-2.5-2.4
	l-7.7,8.6l-1.5-1.4l7.7-8.6c-1.1-1-2.2-1.9-3.3-2.9l-4.3,5.2l-0.7-0.6l4.3-5.2c-1.1-1-2.3-1.9-3.5-2.8l-4.2,5.3l-0.7-0.6l4.2-5.3
	c-0.9-0.7-1.8-1.4-2.7-2.1l-6.8,9.4l-1.6-1.2l6.8-9.4c-1.2-0.9-2.4-1.7-3.6-2.5l-3.8,5.6l-0.8-0.5l3.8-5.6c-1.2-0.8-2.5-1.6-3.7-2.4
	l-3.6,5.8l-0.8-0.5l3.6-5.8c-1-0.6-1.9-1.2-2.9-1.8l-5.9,10.1l-0.2-0.1l-2.7,4.7l-2.2-1.3l8.6-14.9c-1.1-0.6-2.2-1.2-3.2-1.8l-3.2,6
	l-0.8-0.4l3.2-6c-1.3-0.7-2.6-1.4-4-2l-3,6.1l-0.8-0.4l3-6.1c-1-0.5-2-1-3.1-1.4l-4.8,10.8l-1.8-0.8l4.8-10.8
	c-1.4-0.6-2.7-1.2-4.1-1.7l-2.6,6.3l-0.8-0.3l2.6-6.3c-1.4-0.6-2.8-1.1-4.2-1.6l-2.3,6.4l-0.9-0.3l2.3-6.4c-1.1-0.4-2.1-0.8-3.2-1.1
	l-3.7,11.3l-1.9-0.6l3.7-11.3c-1.4-0.5-2.8-0.9-4.3-1.3l-1.9,6.6l-0.9-0.3l1.9-6.6c-1.4-0.4-2.9-0.8-4.3-1.2l-1.7,6.6l-0.9-0.2
	l1.7-6.6c-1.1-0.3-2.2-0.5-3.3-0.8l-2.5,11.7l-2-0.4l2.5-11.7c-1.5-0.3-2.9-0.6-4.4-0.8l-1.2,6.7l-0.9-0.2l1.2-6.7
	c-1.5-0.3-2.9-0.5-4.4-0.7l-0.9,6.8l-0.9-0.1l1-6.8c-1.1-0.2-2.2-0.3-3.3-0.4l-1.3,11.9l-2-0.2l1.3-11.9c-1.5-0.1-3-0.3-4.5-0.4
	l-0.5,6.8l-0.9-0.1l0.5-6.8c-1.5-0.1-3-0.2-4.5-0.2l-0.2,6.8l-0.9,0l0.2-6.8c-1.2,0-2.4-0.1-3.6-0.1v17.2h-2.5V6.1
	c-1.2,0-2.5,0-3.7,0.1l0.2,6.8l-0.9,0l-0.2-6.8c-1.5,0.1-3,0.1-4.5,0.2l0.5,6.8l-0.9,0.1l-0.5-6.8c-1.3,0.1-2.6,0.2-3.8,0.3
	l1.2,11.7l-2,0.2L143,7c-1.3,0.1-2.6,0.3-3.9,0.5l0.9,6.8l-0.9,0.1l-0.9-6.8c-1.5,0.2-2.9,0.4-4.4,0.7l1.2,6.7l-0.9,0.2l-1.2-6.7
	c-1.3,0.2-2.5,0.5-3.8,0.7l2.5,11.6l-2,0.4l-2.5-11.6c-1.3,0.3-2.6,0.6-3.9,0.9l1.7,6.6l-0.9,0.2l-1.6-6.6c-1.4,0.4-2.9,0.7-4.3,1.2
	l1.9,6.6l-0.9,0.3l-1.9-6.6c-1.2,0.4-2.4,0.7-3.7,1.1l3.7,11.2l-1.9,0.6l-3.7-11.2c-1.3,0.4-2.5,0.9-3.8,1.3l2.3,6.4l-0.9,0.3
	l-2.3-6.4c-1.4,0.5-2.8,1.1-4.2,1.6l2.5,6.3l-0.8,0.3l-2.5-6.3c-1.2,0.5-2.3,1-3.5,1.5l4.8,10.8l-1.8,0.8l-4.8-10.8
	c-1.2,0.6-2.4,1.1-3.6,1.7l3,6.1L95.1,28l-3-6.1c-1.3,0.7-2.7,1.3-4,2l3.2,6l-0.8,0.4l-3.2-6c-1.1,0.6-2.1,1.2-3.2,1.8l8.6,14.8
	l-2.2,1.3L82,27.3c-1.1,0.6-2.1,1.3-3.2,1.9l3.6,5.7l-0.8,0.5l-3.6-5.7c-1.3,0.8-2.5,1.6-3.7,2.4l3.8,5.6l-0.8,0.5l-3.8-5.6
	c-1,0.7-2.1,1.4-3.1,2.2l6.9,9.5l-1.6,1.2L68.8,36c-1.1,0.8-2.2,1.6-3.2,2.4l4.1,5.3l-0.7,0.6L64.9,39c-1.2,0.9-2.3,1.9-3.5,2.8
	l4.3,5.2l-0.7,0.6l-4.3-5.2c-1,0.9-2.1,1.8-3.1,2.7l8.1,9l-1.5,1.4l-8.1-9c-0.9,0.8-1.8,1.7-2.7,2.5l4.7,4.8l-0.7,0.6l-4.7-4.8
	c-1.1,1-2.1,2.1-3.2,3.2l4.8,4.7l-0.6,0.7L49,53.5c-1,1-1.9,2-2.8,3l9,8.1l-1.4,1.5l-9-8.1c-0.8,0.9-1.6,1.8-2.4,2.8l5.2,4.3
	L47,65.8l-5.2-4.3c-1,1.1-1.9,2.3-2.8,3.5l5.3,4.1l-0.6,0.7l-5.3-4.1c-0.8,1.1-1.7,2.2-2.5,3.3l9.8,7.1l-1.2,1.6l-9.8-7.1
	c-0.7,1-1.4,2-2.1,3l5.6,3.8l-0.5,0.8l-5.6-3.8c-0.8,1.2-1.6,2.5-2.4,3.7l5.7,3.6L35,82.4l-5.7-3.6c-0.6,1-1.3,2.1-1.9,3.1l14.8,8.6
	L41,92.7l-4.4-2.5l0,0l-10.5-6c-0.6,1.1-1.2,2.1-1.8,3.2l6,3.2l-0.4,0.8l-6-3.2c-0.7,1.3-1.4,2.6-2,4l6.1,3l-0.4,0.8l-6.1-3
	c-0.6,1.3-1.2,2.5-1.8,3.8l11.1,4.9l-0.8,1.8l-11-4.9c-0.5,1.1-1,2.2-1.4,3.3l6.3,2.5l-0.3,0.8l-6.3-2.5c-0.6,1.4-1.1,2.8-1.6,4.2
	l6.4,2.3l-0.3,0.9l-6.4-2.3c-0.5,1.3-0.9,2.6-1.4,4l11.5,3.7l-0.6,1.9l-11.5-3.7c-0.4,1.1-0.7,2.3-1,3.5l6.6,1.9l-0.3,0.9l-6.5-1.9
	c-0.4,1.4-0.8,2.9-1.2,4.3l6.6,1.6l-0.2,0.9l-6.6-1.6c-0.3,1.4-0.7,2.7-1,4.1l11.8,2.5l-0.4,2l-11.8-2.5c-0.2,1.2-0.5,2.4-0.7,3.5
	l6.7,1.2l-0.2,0.9l-6.7-1.2c-0.3,1.5-0.5,2.9-0.7,4.4l6.7,0.9l-0.1,0.9l-6.7-0.9c-0.2,1.4-0.4,2.8-0.5,4.2l11.9,1.3l-0.2,2
	l-11.9-1.3c-0.1,1.2-0.2,2.4-0.3,3.6l6.8,0.5l-0.1,0.9l-6.8-0.5c-0.1,1.5-0.2,3-0.2,4.5l6.8,0.2l0,0.9l-6.8-0.2
	c0,1.2-0.1,2.4-0.1,3.6l17.2,0v2.5l-17.2,0c0,1.2,0,2.5,0.1,3.7l6.8-0.2l0,0.9l-6.8,0.2c0.1,1.5,0.1,3,0.2,4.5l6.8-0.5l0.1,0.9
	l-6.8,0.5c0.1,1.3,0.2,2.6,0.3,3.9l11.9-1.2l0.2,2L7,177.1c0.1,1.3,0.3,2.6,0.5,3.9l6.7-0.9l0.1,0.9l-6.7,0.9
	c0.2,1.5,0.4,2.9,0.7,4.4l6.7-1.2l0.2,0.9l-6.7,1.2c0.2,1.3,0.5,2.6,0.7,3.8l11.7-2.5l0.4,2L9.7,193c0.3,1.3,0.6,2.5,0.9,3.8
	l6.6-1.6l0.2,0.9l-6.6,1.6c0.4,1.4,0.7,2.9,1.2,4.3l6.5-1.9l0.3,0.9l-6.5,1.9c0.4,1.3,0.7,2.5,1.1,3.7l11.4-3.7l0.6,1.9l-11.4,3.7
	c0.4,1.2,0.8,2.5,1.3,3.7l6.4-2.3l0.3,0.9l-6.4,2.3c0.5,1.4,1.1,2.8,1.6,4.2l6.3-2.5l0.3,0.8l-6.3,2.5c0.5,1.2,1,2.4,1.5,3.6
	l10.9-4.9l0.8,1.8l-10.9,4.9c0.5,1.2,1.1,2.4,1.7,3.5l6.1-3l0.4,0.8l-6.1,3c0.7,1.3,1.3,2.7,2,4l6-3.2l0.4,0.8l-6,3.2
	c0.6,1.1,1.2,2.1,1.8,3.2l14.8-8.6l1.3,2.2L27.4,238c0.6,1.1,1.3,2.1,1.9,3.1l5.7-3.6l0.5,0.8l-5.7,3.6c0.8,1.3,1.6,2.5,2.4,3.7
	l5.6-3.8l0.5,0.8l-5.6,3.8c0.7,1.1,1.5,2.1,2.2,3.2l9.6-7l1.2,1.6l-9.6,7c0.8,1,1.6,2.1,2.4,3.1l5.3-4.1l0.6,0.7l-5.3,4.1
	c0.9,1.2,1.9,2.3,2.8,3.5l5.2-4.3l0.6,0.7l-5.2,4.3c0.9,1.1,1.8,2.2,2.8,3.2l9.1-8.2l1.4,1.5l-9.1,8.2c0.8,0.9,1.6,1.7,2.4,2.6
	l4.8-4.7l0.6,0.7l-4.8,4.7c1,1.1,2.1,2.1,3.2,3.2l4.7-4.8l0.7,0.6l-4.7,4.8c1,1,2.1,2,3.1,2.9l8.2-9.1l1.5,1.4l-8.2,9.1
	c0.9,0.8,1.8,1.5,2.7,2.3l4.3-5.2l0.7,0.6l-4.3,5.2c1.1,1,2.3,1.9,3.5,2.8l4.1-5.3l0.7,0.6l-4.1,5.3c1.1,0.9,2.3,1.8,3.4,2.6
	l7.2-9.9l1.6,1.2l-7.2,9.9c0.9,0.7,1.9,1.3,2.9,2l3.8-5.6l0.8,0.5l-3.8,5.6c1.2,0.8,2.5,1.6,3.7,2.4l3.6-5.7l0.8,0.5l-3.6,5.7
	c1,0.6,2.1,1.3,3.1,1.9l8.6-14.8l2.2,1.3l-2.5,4.3l0.2,0.1L84.3,294c1,0.6,2,1.1,3,1.7l3.2-6l0.8,0.4l-3.2,6c1.3,0.7,2.6,1.4,4,2
	l3-6.1l0.8,0.4l-3,6.1c1.3,0.6,2.6,1.3,4,1.9l4.9-11.1l1.8,0.8l-4.9,11.1c1.1,0.5,2.1,0.9,3.2,1.3l2.6-6.3l0.8,0.3l-2.5,6.3
	c1.4,0.6,2.8,1.1,4.2,1.6l2.3-6.4l0.9,0.3l-2.3,6.4c1.4,0.5,2.8,1,4.1,1.4l3.7-11.5l1.9,0.6l-3.7,11.5c1.1,0.3,2.2,0.7,3.3,1
	l1.9-6.6l0.9,0.3l-1.9,6.6c1.4,0.4,2.9,0.8,4.3,1.1l1.6-6.6l0.9,0.2l-1.7,6.6c1.4,0.3,2.9,0.7,4.3,1l2.5-11.8l2,0.4l-2.5,11.8
	c1.1,0.2,2.2,0.4,3.4,0.6l1.2-6.7l0.9,0.2l-1.2,6.7c1.5,0.3,2.9,0.5,4.4,0.7l0.9-6.8l0.9,0.1l-0.9,6.8c1.5,0.2,2.9,0.4,4.4,0.5
	l1.3-11.9l2,0.2l-1.3,11.9c1.1,0.1,2.3,0.2,3.4,0.3l0.5-6.8l0.9,0.1l-0.5,6.8c1.5,0.1,3,0.2,4.5,0.2l0.2-6.8l0.9,0l-0.2,6.8
	c1.2,0,2.4,0.1,3.7,0.1v-17.2h2.5V314c1.2,0,2.4,0,3.7-0.1l-0.2-6.8l0.9,0l0.2,6.8c1.5-0.1,3-0.1,4.5-0.2l-0.5-6.8l0.9-0.1l0.5,6.8
	c1.3-0.1,2.6-0.2,3.9-0.3l-1.3-12.1l2-0.2l1.3,12.1c1.3-0.1,2.6-0.3,3.9-0.5l-1-6.8l0.9-0.1l0.9,6.8c1.5-0.2,2.9-0.4,4.4-0.7
	l-1.2-6.7l0.9-0.2l1.2,6.7c1.3-0.2,2.6-0.5,3.9-0.7l-2.5-11.9l2-0.4l2.5,11.9c1.3-0.3,2.5-0.6,3.8-0.9l-1.7-6.6l0.9-0.2l1.7,6.6
	c1.4-0.4,2.9-0.7,4.3-1.2l-1.9-6.6l0.9-0.3l1.9,6.6c1.3-0.4,2.5-0.8,3.8-1.2l-3.8-11.6l1.9-0.6l3.8,11.6c1.2-0.4,2.4-0.8,3.6-1.3
	l-2.3-6.4l0.9-0.3l2.3,6.4c1.4-0.5,2.8-1.1,4.2-1.6l-2.6-6.3l0.8-0.3l2.6,6.3c1.2-0.5,2.5-1,3.7-1.6l-4.9-11.1l1.8-0.8l4.9,11.1
	c1.2-0.5,2.3-1.1,3.5-1.6l-3-6.1l0.8-0.4l3,6.1c1.3-0.7,2.7-1.3,4-2l-3.2-6l0.8-0.4l3.2,6c1.1-0.6,2.1-1.2,3.2-1.8l-8.6-14.9
	l2.2-1.3l8.6,14.8C239.1,292.1,240.2,291.4,241.2,290.8z M243.4,294.2l-1.1-1.8c-1.1,0.7-2.1,1.3-3.2,1.9l1.1,1.8
	C241.2,295.5,242.3,294.9,243.4,294.2z M248,291.2l-1.2-1.7c-1.3,0.8-2.5,1.7-3.8,2.5l1.1,1.8C245.4,292.9,246.7,292.1,248,291.2z
	 M252.2,288.3l-1.2-1.7c-1.1,0.8-2.2,1.6-3.4,2.3l1.2,1.7C249.9,289.9,251,289.1,252.2,288.3z M256.9,284.7l-1.3-1.7
	c-1,0.8-2,1.6-3.1,2.3l1.2,1.7C254.8,286.3,255.9,285.5,256.9,284.7z M261.2,281.3l-1.4-1.6c-1.2,1-2.3,1.9-3.5,2.9l1.3,1.7
	C258.8,283.2,260,282.3,261.2,281.3z M264.8,278.2l-1.4-1.6c-0.9,0.8-1.9,1.7-2.8,2.5l1.4,1.6C262.9,279.9,263.9,279,264.8,278.2z
	 M269.4,273.9l-1.5-1.5c-1,1-2,1.9-3.1,2.9l1.4,1.6C267.4,275.9,268.4,274.9,269.4,273.9z M273.3,270l-1.5-1.5
	c-1.1,1.1-2.1,2.1-3.2,3.2l1.5,1.5C271.2,272.2,272.3,271.1,273.3,270z M276.6,266.6l-1.6-1.4c-0.8,0.9-1.7,1.8-2.6,2.7l1.5,1.5
	C274.8,268.5,275.7,267.5,276.6,266.6z M280.7,261.9l-1.6-1.4c-0.9,1.1-1.8,2.1-2.8,3.2l1.6,1.4C278.9,264,279.8,263,280.7,261.9z
	 M284.2,257.6l-1.7-1.3c-0.9,1.2-1.9,2.4-2.9,3.5l1.6,1.4C282.3,260,283.3,258.8,284.2,257.6z M287.1,253.9l-1.7-1.2
	c-0.7,1-1.5,2-2.2,3l1.7,1.3C285.6,255.9,286.3,254.9,287.1,253.9z M290.7,248.7l-1.7-1.2c-0.8,1.2-1.6,2.3-2.4,3.5l1.7,1.2
	C289.1,251.1,289.9,249.9,290.7,248.7z M293.8,244.1L292,243c-0.8,1.3-1.6,2.5-2.5,3.8l1.7,1.2C292.1,246.7,292.9,245.4,293.8,244.1
	z M296.2,240.1l-1.8-1.1c-0.6,1.1-1.3,2.1-1.9,3.2l1.8,1.1C294.9,242.3,295.6,241.2,296.2,240.1z M299.3,234.6l-1.9-1
	c-0.6,1.1-1.2,2.2-1.8,3.3l1.8,1.1C298.1,236.8,298.7,235.7,299.3,234.6z M301.8,229.7l-1.9-0.9c-0.7,1.4-1.4,2.7-2.1,4l1.9,1
	C300.5,232.4,301.2,231,301.8,229.7z M303.8,225.5l-1.9-0.9c-0.5,1.1-1,2.2-1.6,3.3l1.9,0.9C302.8,227.7,303.3,226.6,303.8,225.5z
	 M306.4,219.6l-2-0.8c-0.5,1.3-1.1,2.6-1.7,3.9l1.9,0.9C305.3,222.3,305.8,221,306.4,219.6z M308.4,214.5l-2-0.7
	c-0.5,1.4-1.1,2.8-1.6,4.2l2,0.8C307.3,217.3,307.8,215.9,308.4,214.5z M309.9,210.1l-2-0.7c-0.4,1.2-0.8,2.3-1.2,3.4l2,0.7
	C309.1,212.4,309.5,211.3,309.9,210.1z M311.8,204l-2-0.6c-0.4,1.4-0.8,2.8-1.2,4.1l2,0.7C311,206.8,311.4,205.4,311.8,204z
	 M313.3,198.7l-2-0.5c-0.4,1.5-0.8,2.9-1.2,4.4l2,0.6C312.5,201.6,312.9,200.2,313.3,198.7z M314.3,194.2l-2.1-0.4
	c-0.3,1.2-0.5,2.4-0.8,3.5l2,0.5C313.8,196.6,314.1,195.4,314.3,194.2z M315.6,187.9l-2.1-0.4c-0.3,1.4-0.5,2.8-0.8,4.2l2.1,0.4
	C315.1,190.8,315.3,189.3,315.6,187.9z M316.5,182.4l-2.1-0.3c-0.2,1.5-0.4,3-0.7,4.5l2.1,0.4C316,185.5,316.2,184,316.5,182.4z
	 M317,177.9l-2.1-0.2c-0.1,1.2-0.3,2.4-0.4,3.6l2.1,0.3C316.7,180.3,316.9,179.1,317,177.9z M317.6,171.5l-2.1-0.1
	c-0.1,1.4-0.2,2.9-0.4,4.3l2.1,0.2C317.4,174.4,317.5,172.9,317.6,171.5z M317.9,166l-2.1-0.1c-0.1,1.5-0.1,3-0.2,4.5l2.1,0.1
	C317.8,169,317.9,167.5,317.9,166z M318,161.3l-2.1,0c0,1.2,0,2.5-0.1,3.7l2.1,0.1C318,163.8,318,162.5,318,161.3z M318,158.8
	c0-1.3,0-2.6-0.1-3.8l-2.1,0.1c0,1.2,0.1,2.5,0.1,3.8L318,158.8z"/>
</svg>
