<?xml version="1.0" encoding="utf-8"?>
<!-- Generator: Adobe Illustrator 26.3.1, SVG Export Plug-In . SVG Version: 6.00 Build 0)  -->
<svg version="1.1" id="hours" xmlns="http://www.w3.org/2000/svg" xmlns:xlink="http://www.w3.org/1999/xlink" x="0px" y="0px"
	 viewBox="0 0 320 320" style="enable-background:new 0 0 320 320;" xml:space="preserve">
<path d="M163,160c0-1.6-1.3-3-2.9-3c-1.6,0-2.9,1.3-2.9,3s1.3,3,2.9,3C161.7,163,163,161.7,163,160z M160,165.7
	c-3.1,0-5.6-2.6-5.6-5.7s2.5-5.7,5.6-5.7s5.6,2.6,5.6,5.7S163.1,165.7,160,165.7z M160,164.7c2.5,0,4.6-2.1,4.6-4.7
	c0-2.6-2.1-4.7-4.6-4.7c-2.5,0-4.6,2.1-4.6,4.7C155.4,162.6,157.4,164.7,160,164.7z"/>
<path d="M156.6,156l-5.8-12.9L160,50l9.2,93.2l-5.8,12.9C161,154.3,159,154.3,156.6,156z"/>
<path d="M162.7,164.6l9.2,20.9c0.1,0.2,0.1,0.4-0.1,0.5l-11.3,14.1c-0.2,0.3-0.6,0.3-0.8,0l-11.3-14.1c-0.1-0.1-0.1-0.4-0.1-0.5
	l8.4-20.8c0.1-0.3,0.5-0.4,0.8-0.2c1.5,1.2,2.8,1.2,4.3,0C162.2,164.2,162.6,164.3,162.7,164.6z"/>
</svg>
