<?xml version="1.0" encoding="utf-8"?>
<!-- Generator: Adobe Illustrator 26.3.1, SVG Export Plug-In . SVG Version: 6.00 Build 0)  -->
<svg version="1.1" id="minutes" xmlns="http://www.w3.org/2000/svg" xmlns:xlink="http://www.w3.org/1999/xlink" x="0px" y="0px"
	 viewBox="0 0 320 320" style="enable-background:new 0 0 320 320;" xml:space="preserve">
<style type="text/css">
	.st0{fill:none;}
</style>
<g>
	<path class="st0" d="M164.6,160c0-2.6-2.1-4.7-4.6-4.7c-2.5,0-4.6,2.1-4.6,4.7c0,2.6,2.1,4.7,4.6,4.7
		C162.5,164.7,164.6,162.6,164.6,160z M157.2,160c0-1.6,1.3-3,2.9-3c1.6,0,2.9,1.3,2.9,3c0,1.6-1.3,3-2.9,3
		C158.5,163,157.2,161.7,157.2,160z"/>
	<path d="M161.9,165.4c2.2-0.8,3.7-2.9,3.7-5.4c0-2.5-1.6-4.6-3.8-5.4l3.4-11.5L160,24l-5.3,119.1l3.4,11.5
		c-2.2,0.8-3.8,2.9-3.8,5.4c0,2.4,1.5,4.5,3.6,5.4l-7.4,35.3l9.5,11.1l10.2-11.1L161.9,165.4z M155.4,160c0-2.6,2.1-4.7,4.6-4.7
		c2.5,0,4.6,2.1,4.6,4.7c0,2.6-2.1,4.7-4.6,4.7C157.4,164.7,155.4,162.6,155.4,160z"/>
	<ellipse cx="160.1" cy="160" rx="2.9" ry="3"/>
</g>
</svg>
