<?xml version="1.0" encoding="utf-8"?>
<!-- Generator: Adobe Illustrator 26.3.1, SVG Export Plug-In . SVG Version: 6.00 Build 0)  -->
<svg version="1.1" id="seconds" xmlns="http://www.w3.org/2000/svg" xmlns:xlink="http://www.w3.org/1999/xlink" x="0px" y="0px"
	 viewBox="0 0 320 320" style="enable-background:new 0 0 320 320;" xml:space="preserve">
<style type="text/css">
	.st0{fill:none;}
</style>
<g>
	<path class="st0" d="M160,155.3c-2.5,0-4.6,2.1-4.6,4.7c0,2.6,2.1,4.7,4.6,4.7c2.5,0,4.6-2.1,4.6-4.7
		C164.6,157.4,162.5,155.3,160,155.3z M160.1,163c-1.6,0-2.9-1.3-2.9-3c0-1.6,1.3-3,2.9-3c1.6,0,2.9,1.3,2.9,3
		C163,161.7,161.7,163,160.1,163z"/>
	<path d="M161.2,154.4l0.1-146.6h-2.5v146.6c-2.5,0.6-4.4,2.9-4.4,5.6s1.9,5,4.4,5.6v65.8l2.4-0.2v-65.7c2.5-0.6,4.5-2.9,4.5-5.6
		C165.6,157.2,163.7,154.9,161.2,154.4z M160,164.7c-2.5,0-4.6-2.1-4.6-4.7c0-2.6,2.1-4.7,4.6-4.7c2.5,0,4.6,2.1,4.6,4.7
		C164.6,162.6,162.5,164.7,160,164.7z"/>
	<ellipse cx="160.1" cy="160" rx="2.9" ry="3"/>
</g>
</svg>
