<svg xmlns="http://www.w3.org/2000/svg" viewBox="0 0 320 320"><path d="M224.6 264.9c.9.8 1.3 1.9 1.3 3.2 0 1.5-.5 2.7-1.5 3.6-1 .9-2.4 1.4-4.1 1.4-1.4 0-2.6-.2-3.6-.6v-2.8c1 .6 2.1.9 3.2.9.9 0 1.5-.2 2-.6s.7-1 .7-1.7c0-1.5-1-2.2-3.1-2.2-.8 0-1.6.1-2.6.2l.6-8.2h7.8v2.6H220l-.2 2.9c.5 0 1-.1 1.4-.1 1.4.2 2.6.6 3.4 1.4zm61.6-98.9c1-.8 1.5-1.9 1.5-3.2 0-.9-.3-1.7-.9-2.3-.6-.6-1.4-1-2.5-1.1v-.1c1.9-.5 2.9-1.7 2.9-3.6 0-1.1-.4-2-1.3-2.6-.8-.7-2-1-3.5-1-1.4 0-2.6.3-3.6.8v2.6c.9-.6 1.9-1 2.9-1 1.5 0 2.2.6 2.2 1.8 0 1.3-1 1.9-2.9 1.9h-1.3v2.5h1.4c1 0 1.8.2 2.4.5.6.4.9.9.9 1.5s-.2 1.1-.7 1.5c-.5.4-1.1.5-1.9.5-1.3 0-2.5-.4-3.4-1.1v2.8c1 .5 2.2.7 3.7.7 1.7.1 3.1-.3 4.1-1.1zM68.8 100.7c0 2.5-.5 4.4-1.4 5.7-.9 1.3-2.3 2-4 2-3.5 0-5.3-2.4-5.3-7.3 0-2.5.5-4.5 1.4-5.8.9-1.3 2.3-2 4.1-2 3.5-.1 5.2 2.4 5.2 7.4zm-3.3.1c0-3.4-.7-5.1-2-5.1-1.4 0-2.1 1.8-2.1 5.3 0 3.3.7 5 2.1 5 1.3-.1 2-1.8 2-5.2zm32.4-53.6h-2c-.6.5-1.3.9-2 1.3s-1.5.7-2.4.9v2.7c.3 0 .6-.1.9-.2l.9-.3c.3-.1.5-.2.8-.4.2-.1.5-.3.6-.4v11.3h3.2V47.2zm8.1 1.2c-.7.4-1.5.7-2.4.9V52c.3 0 .6-.1.9-.2.3-.1.6-.2.8-.3s.5-.2.8-.4c.2-.1.5-.3.6-.4V62h3.2V47h-2c-.4.6-1.1 1.1-1.9 1.4zM60.6 223.5c.1.4.2.8.2 1.2 0 .6-.1 1.2-.4 1.7-.3.5-.6 1-1.1 1.3-.5.4-1 .7-1.7.9-.6.2-1.3.3-2.1.3s-1.5-.1-2.1-.3c-.6-.2-1.2-.5-1.7-.9s-.8-.8-1.1-1.3-.4-1.1-.4-1.7c0-.4.1-.8.2-1.2.1-.4.3-.7.5-1.1.2-.3.5-.6.9-.9.4-.3.8-.5 1.3-.6-.7-.4-1.3-.8-1.7-1.4-.4-.6-.6-1.2-.6-1.9 0-.6.1-1.1.4-1.6s.6-.9 1-1.2.9-.6 1.5-.8c.6-.2 1.2-.3 1.9-.3s1.3.1 1.9.3c.6.2 1.1.5 1.5.8.4.3.7.8 1 1.2.2.5.3 1 .3 1.5 0 .7-.2 1.3-.7 1.9-.4.6-1 1-1.8 1.4.5.2.9.4 1.3.6.4.3.7.5.9.9s.4.9.6 1.2zm-6.8-5.5c0 .3 0 .5.1.7.1.2.2.4.4.6s.3.3.6.4c.2.1.4.1.7.1.2 0 .5 0 .7-.1.2-.1.4-.2.6-.4.2-.2.3-.4.4-.6.1-.2.1-.5.1-.7 0-.3 0-.5-.1-.7-.1-.2-.2-.4-.4-.6-.2-.2-.3-.3-.6-.4-.2-.1-.4-.1-.7-.1-.3 0-.5 0-.7.1s-.4.2-.6.4-.3.3-.3.6c-.1.2-.2.4-.2.7zm3.9 6.5c0-.3-.1-.6-.2-.8s-.2-.5-.4-.7c-.2-.2-.4-.3-.7-.5-.3-.1-.6-.2-.9-.2-.3 0-.6.1-.9.2s-.5.3-.7.4-.3.4-.5.7-.2.6-.2.9c0 .3.1.6.2.9s.2.5.4.7c.2.2.4.3.7.4.3.1.6.1.9.1.3 0 .6-.1.9-.2.3-.1.5-.2.7-.4.2-.2.3-.4.5-.7.1-.2.2-.5.2-.8zM42.3 156c.2.9.4 1.8.4 2.9 0 1.3-.1 2.5-.4 3.5-.3 1-.7 1.9-1.3 2.6-.5.7-1.2 1.3-2 1.6s-1.7.6-2.7.6c-1.2 0-2.2-.2-3.1-.6v-2.7c.8.5 1.7.8 2.8.8 1.1 0 2-.4 2.6-1.1.6-.8.9-1.9 1-3.3h-.1c-.6 1-1.6 1.4-3 1.4-.6 0-1.2-.1-1.7-.3-.5-.2-1-.5-1.3-.9-.4-.4-.7-.9-.9-1.4-.2-.6-.3-1.2-.3-1.8 0-.8.1-1.5.4-2.1s.6-1.2 1.1-1.6c.5-.5 1-.8 1.6-1.1.6-.2 1.3-.4 2.1-.4s1.5.2 2.2.5c.6.3 1.2.8 1.6 1.3.5.5.8 1.2 1 2.1zm-2.9 1.2c0-.4 0-.7-.1-1.1-.1-.3-.2-.6-.4-.9l-.6-.6c-.2-.2-.5-.2-.8-.2-.3 0-.5.1-.8.2-.2.1-.4.3-.6.5s-.3.5-.4.8-.1.6-.1 1 0 .7.1 1c.1.3.2.5.4.8.2.2.4.4.6.5s.5.2.8.2c.3 0 .5-.1.8-.2s.4-.3.6-.5c.2-.2.3-.4.4-.7.1-.2.1-.5.1-.8zm14.5-64.1h-2c-.6.5-1.3.9-2 1.3s-1.5.7-2.4.9V98c.3 0 .6-.1.9-.2l.9-.3c.3-.1.5-.2.8-.4.2-.1.5-.3.6-.4V108h3.2V93.1zm98.6-61.3v11.3h3.2v-15h-2c-.6.5-1.3.9-2 1.3s-1.5.7-2.4.9V33c.3 0 .6-.1.9-.2l.9-.3c.3-.1.5-.2.8-.4.2.1.4-.1.6-.3zm-56 230.9h6.8c-.6.9-1.1 1.8-1.6 2.8-.5.9-1 1.9-1.4 2.9-.4 1-.8 2-1.1 3.1-.3 1.1-.6 2.2-.8 3.3h3.4c.2-1.2.4-2.3.7-3.4.3-1 .6-2.1 1-3.1s.9-2 1.4-3.1 1.1-2.1 1.8-3.3V260H96.5v2.7zm176.3-160.5h-6.2c0-.2.1-.4.2-.6.1-.2.3-.4.6-.6.2-.2.5-.4.8-.7.3-.2.6-.5.9-.7.5-.3 1-.7 1.4-1 .5-.4.8-.8 1.2-1.2s.6-.9.8-1.4c.2-.5.3-1.1.3-1.8 0-.6-.1-1.2-.3-1.7-.2-.5-.5-1-.9-1.3-.4-.4-.9-.6-1.5-.8-.6-.2-1.3-.3-2-.3-1.6 0-3 .4-4.3 1.2v2.8c1.2-1 2.4-1.5 3.6-1.5.7 0 1.3.2 1.6.5s.5.8.5 1.4c0 .3-.1.6-.2.9-.1.3-.3.6-.5.8-.2.3-.5.6-.8.8-.3.3-.7.6-1.1.9-.4.3-.8.6-1.3 1s-.9.8-1.3 1.3-.7 1-1 1.6-.4 1.3-.4 2v1.1h9.8v-2.7zm-50.6-51.6c.3-.1.5-.2.8-.4.2-.1.5-.3.6-.4v11.3h3.2v-15h-2c-.6.5-1.3.9-2 1.3s-1.5.7-2.4.9V51c.3 0 .6-.1.9-.2.3 0 .6-.1.9-.2zm46.7 173.3h-6.4v-2.5c.6-.6 1.2-1.3 1.8-2.1s1.2-1.5 1.8-2.3 1.1-1.6 1.6-2.4c.5-.8.9-1.6 1.2-2.3h3v9.2h1.8v2.4h-1.8v3h-3v-3zm0-2.4v-5.1c-.2.4-.5.9-.8 1.3-.3.5-.6.9-.9 1.3s-.6.9-.9 1.3l-.9 1.2h3.5zm-104.6 60.6c.2.6.3 1.2.3 1.9s-.1 1.4-.4 2c-.3.6-.6 1.2-1.1 1.6-.5.5-1 .8-1.6 1.1-.6.3-1.3.4-2 .4-.8 0-1.6-.2-2.2-.5-.7-.3-1.2-.8-1.7-1.3-.5-.6-.8-1.3-1-2.1s-.4-1.8-.4-2.9c0-1.3.2-2.4.5-3.4s.8-1.9 1.3-2.6c.6-.7 1.3-1.3 2.1-1.7s1.7-.6 2.8-.6c1.1 0 2 .1 2.6.4v2.7c-.7-.4-1.6-.6-2.4-.6-.5 0-1 .1-1.5.3-.4.2-.8.5-1.1.9-.3.4-.6.9-.7 1.4-.2.5-.3 1.2-.3 1.8h.1c.7-1 1.7-1.4 3.1-1.4.6 0 1.2.1 1.7.3.5.2.9.5 1.3.9.1.3.4.8.6 1.4zm-2.9 2c0-1.6-.6-2.4-1.9-2.4-.3 0-.6.1-.8.2-.2.1-.4.3-.6.5-.2.2-.3.4-.4.7-.1.3-.1.6-.1.9 0 .4 0 .7.1 1s.2.6.4.8l.6.6c.2.2.5.2.8.2s.6-.1.8-.2.4-.3.6-.5c.2-.2.3-.5.4-.8s.1-.6.1-1zm3-244.8c.2-.2.5-.4.8-.7.3-.2.6-.5.9-.7.5-.3 1-.7 1.4-1 .5-.4.8-.8 1.2-1.2.3-.4.6-.9.8-1.4.2-.5.3-1.1.3-1.8 0-.6-.1-1.2-.3-1.7-.2-.5-.5-1-.9-1.3-.4-.4-.9-.6-1.5-.8-.6-.2-1.3-.3-2-.3-1.6 0-3 .4-4.3 1.2v2.8c1.2-1 2.4-1.5 3.6-1.5.7 0 1.3.2 1.6.5.4.3.5.8.5 1.4 0 .3-.1.6-.2.9-.1.3-.3.6-.5.8-.2.3-.5.6-.8.8-.3.3-.7.6-1.1.9-.4.3-.8.6-1.3 1s-.9.8-1.3 1.3-.7 1-1 1.6-.4 1.3-.4 2v1.1h9.8v-2.7h-6.2c0-.2.1-.4.2-.6.3-.2.5-.4.7-.6zM320 160v1.3c-.2 24.6-5.9 47.9-16.1 68.6l-.3.6-2.1 4.2-.4.8c-.6 1.1-1.3 2.3-1.9 3.4l-1.3 2.2c-.7 1.1-1.3 2.2-2 3.3l-.5.8c-.8 1.3-1.7 2.6-2.5 3.9l-.5.8c-1.9 2.8-3.9 5.6-6 8.3l-.6.7c-1 1.2-1.9 2.4-2.9 3.6l-.6.7c-2.2 2.6-4.5 5.2-6.9 7.6l-.6.7-3.3 3.3-.7.6c-2.5 2.4-5 4.7-7.6 6.9l-.7.6c-1.2 1-2.4 2-3.6 2.9l-.7.6c-2.7 2.1-5.5 4.1-8.3 6l-.8.5c-1.3.9-2.6 1.7-3.9 2.5l-.8.5c-1.1.7-2.2 1.3-3.3 2l-2.2 1.3c-1.1.6-2.2 1.3-3.4 1.9l-.8.4-4.2 2.1s-7 3.3-10.2 4.6l-.4.2c-15.1 6.1-31.4 10-48.3 11.2l-.9.1c-1.5.1-3.1.2-4.7.2h-.9c-1.3 0-2.6.1-3.9.1h-2.5c-1.3 0-3.9-.1-3.9-.1h-.9l-4.7-.2-.9-.1s-6.8-.6-10.2-1.1l-.9-.1s-21.5-4.2-31.6-7.9l-.5-.2c-.1 0-.2-.1-.3-.1h-.1c-1.5-.5-2.9-1.1-4.4-1.7l-.8-.3c-3.2-1.3-6.3-2.7-9.4-4.2l-.8-.4-4.2-2.1-.8-.4c-1.1-.6-2.3-1.3-3.4-1.9l-2.2-1.3c-1.1-.7-2.2-1.3-3.3-2l-.8-.5c-1.3-.8-2.6-1.7-3.9-2.5l-.8-.5c-2.8-1.9-5.6-3.9-8.3-6l-.7-.6c-1.2-1-2.4-1.9-3.6-2.9l-.7-.6c-2.6-2.2-5.2-4.5-7.6-6.9l-.7-.6-3.3-3.3-.6-.7c-2.4-2.5-4.7-5-6.9-7.6l-.6-.7c-1-1.2-2-2.4-2.9-3.6l-.6-.7c-2.1-2.7-4.1-5.5-6-8.3l-.5-.8c-.9-1.3-1.7-2.6-2.5-3.9l-.5-.8c-.7-1.1-1.3-2.2-2-3.3l-1.3-2.2c-.6-1.1-1.3-2.2-1.9-3.4l-.4-.8-2.1-4.2-.4-.8c-1.5-3.1-2.9-6.2-4.2-9.4l-.3-.8c-.6-1.4-1.1-2.9-1.7-4.4l-.3-.9c-1.2-3.2-2.2-6.5-3.2-9.8l-.3-.9-1.2-4.5-.2-.9c-.8-3.3-1.5-6.6-2.1-10l-.1-.9c-.3-1.5-.5-3.1-.7-4.6l-.1-.9c-.5-3.4-.8-6.8-1.1-10.2l-.1-.9c-.1-1.5-.2-3.1-.2-4.7v-.9c0-1.3-.1-2.6-.1-3.9v-2.5c0-1.3 0-2.6.1-3.8v-.9c.1-1.6.3-5.6.3-5.6.2-3.4.6-6.8 1.1-10.2l.1-.9c.2-1.5.5-3.1.7-4.6l.1-.9c.6-3.4 1.3-6.7 2.1-10l.2-.9 1.2-4.5.3-.9c1-3.3 2-6.5 3.2-9.8l.3-.9c.5-1.5 1.1-2.9 1.7-4.4l.3-.8c1.3-3.2 2.7-6.3 4.2-9.4l.4-.8 2.1-4.2.4-.8c.6-1.1 1.3-2.3 1.9-3.4l1.3-2.2c.7-1.1 1.3-2.2 2-3.3l.5-.8c.8-1.3 1.7-2.6 2.5-3.9l.5-.8c1.9-2.8 3.9-5.6 6-8.3l.6-.7c1-1.2 1.9-2.4 2.9-3.6l.6-.7c2.2-2.6 4.5-5.2 6.9-7.6l.6-.7 3.3-3.3.7-.6c2.5-2.4 5-4.7 7.6-6.9l.7-.6c1.2-1 2.4-2 3.6-2.9l.7-.6c2.7-2.1 5.5-4.1 8.3-6l.8-.5c1.3-.9 2.6-1.7 3.9-2.5l.8-.5c1.1-.7 2.2-1.4 3.3-2l2.2-1.3c1.1-.6 2.2-1.3 3.3-1.9l.8-.4 4.2-2.1.8-.4c3.1-1.5 6.2-2.9 9.4-4.2l.8-.3c1.4-.6 2.9-1.1 4.4-1.7l.1-.1c.1 0 .2-.1.2-.1l.5-.2c10.1-3.7 20.7-6.3 31.6-7.9 0 0 7.7-1 11.1-1.2l.9-.1c1.5-.1 5.6-.3 5.6-.3 1.3 0 2.6-.1 3.9-.1h2.5c1.3 0 2.6 0 3.8.1h.9s3.1.1 4.7.3l.9.1c17 1.2 33.3 5.1 48.4 11.2l.4.1c3.2 1.3 6.3 2.7 9.4 4.2l.8.4 4.2 2.1.8.4c1.2.6 2.3 1.3 3.4 1.9l2.2 1.3c1.1.6 2.2 1.3 3.3 2l.8.5c1.3.8 2.6 1.7 3.9 2.5l.8.5c2.8 1.9 5.6 3.9 8.3 6l.7.6c1.2 1 2.4 1.9 3.6 2.9l.7.6c2.6 2.2 5.2 4.5 7.6 6.9l.7.6 3.3 3.3.6.7c2.4 2.5 4.7 5 6.9 7.6l.6.7c1 1.2 2 2.4 2.9 3.6l.6.7c2.1 2.7 4.1 5.5 6 8.3l.5.8c.9 1.3 1.7 2.6 2.5 3.9l.5.8c.7 1.1 1.4 2.2 2 3.3l1.3 2.2c.6 1.1 1.3 2.2 1.9 3.3l.4.8 2.1 4.2.3.7c10.1 20.8 15.9 44.1 16.1 68.7v.9c.2.5.2.6.2.7zm-2.3-10.6l-2.1.1c.1 1.5.2 3 .2 4.5l2.1-.1c0-1.4-.1-3-.2-4.5zm-.4-4.9l-2.1.2.3 3.9 2.1-.1c-.1-1.3-.2-2.6-.3-4zm-.7-6.1l-2.1.3c.2 1.3.3 2.7.5 4l2.1-.2c-.2-1.3-.3-2.7-.5-4.1zm-.9-5.4l-2.1.4c.3 1.5.5 3 .7 4.5l2.1-.3c-.2-1.6-.4-3.1-.7-4.6zm-.9-4.8l-2.1.4c.3 1.3.5 2.6.7 3.8l2.1-.4c-.2-1.2-.4-2.5-.7-3.8zm-1.3-6l-2 .5.9 3.9 2.1-.4c-.4-1.3-.7-2.7-1-4zm-1.4-5.3l-2 .6c.4 1.4.8 2.9 1.2 4.4l2-.5c-.4-1.6-.8-3.1-1.2-4.5zm-1.5-4.7l-2 .7c.4 1.2.8 2.5 1.1 3.7l2-.6c-.3-1.3-.6-2.6-1.1-3.8zm-1.9-5.8l-2 .7c.5 1.3.9 2.5 1.3 3.8l2-.7c-.4-1.2-.9-2.5-1.3-3.8zm-2-5.2l-2 .8c.6 1.4 1.1 2.8 1.6 4.2l2-.7c-.5-1.4-1-2.9-1.6-4.3zm-1.9-4.5l-1.9.9 1.5 3.6 2-.8c-.5-1.3-1.1-2.5-1.6-3.7zm-2.6-5.6l-1.9.9c.6 1.2 1.2 2.4 1.7 3.7l1.9-.9c-.5-1.2-1.1-2.4-1.7-3.7zm-2.5-4.9l-1.9 1c.7 1.3 1.4 2.7 2.1 4l1.9-.9c-.7-1.4-1.4-2.7-2.1-4.1zm-2.2-4.1l-1.8 1.1c.6 1.1 1.2 2.1 1.8 3.2l1.9-1c-.7-1.1-1.3-2.2-1.9-3.3zm-3.3-5.4l-1.8 1.1c.7 1.1 1.3 2.1 2 3.2l1.8-1.1c-.6-1.1-1.3-2.2-2-3.2zm-3-4.7l-1.7 1.2c.8 1.3 1.7 2.5 2.5 3.8l1.8-1.1c-.9-1.3-1.7-2.6-2.6-3.9zm-2.8-4l-1.7 1.2c.8 1.1 1.5 2.1 2.2 3.2l1.7-1.2c-.6-1-1.4-2.1-2.2-3.2zm-3.6-4.9l-1.7 1.3c.8 1.1 1.6 2.1 2.5 3.2l1.7-1.2c-.9-1.1-1.7-2.2-2.5-3.3zm-3.5-4.3l-1.6 1.4c1 1.2 1.9 2.3 2.9 3.5l1.7-1.3c-1.1-1.2-2-2.4-3-3.6zm-3-3.4l-1.6 1.4c.8.9 1.6 1.8 2.3 2.7l1.6-1.4c-.7-.9-1.5-1.8-2.3-2.7zm-4.4-4.8l-1.5 1.5c1 1.1 2 2.1 3 3.2l1.6-1.4c-1-1.1-2-2.2-3.1-3.3zm-3.9-3.9l-1.5 1.5 3.2 3.2 1.5-1.5c-1-1-2-2.1-3.2-3.2zm-4.6-1.5c.9.8 1.7 1.6 2.6 2.4l1.5-1.5c-.9-.8-1.7-1.6-2.6-2.5l-1.5 1.6zm-3.5-5.9l-1.4 1.6c1.1 1 2.2 1.9 3.3 2.9l1.4-1.6c-1-1-2.2-1.9-3.3-2.9zm-4.3-3.5l-1.3 1.7c1.2.9 2.4 1.9 3.5 2.9l1.4-1.6c-1.2-1.1-2.4-2-3.6-3zm-4.8-1c.9.7 1.9 1.4 2.8 2.1l1.3-1.7c-.9-.7-1.9-1.4-2.8-2.2l-1.3 1.8zm-4.1-5.5l-1.2 1.7c1.2.8 2.5 1.7 3.7 2.6l1.2-1.7c-1.2-.9-2.4-1.7-3.7-2.6zm-4.6-3l-1.1 1.8c1.3.8 2.5 1.6 3.8 2.5l1.2-1.7c-1.3-1-2.6-1.8-3.9-2.6zm-4.8-.5l3 1.8 1.1-1.8-3-1.8-1.1 1.8zm-4.7-5.1l-1 1.9 3.3 1.8 1.1-1.8c-1.2-.7-2.3-1.3-3.4-1.9zm-4.9-2.5l-.9 1.9c1.4.7 2.7 1.4 4 2.1l1-1.9c-1.4-.7-2.7-1.4-4.1-2.1zm-4.9 0c1 .5 2.1 1 3.1 1.5l.9-1.9c-1.1-.5-2.1-1-3.2-1.5l-.8 1.9zm-6-2.6l4.2 1.8.9-1.9-4.2-1.8-.9 1.9zm-5-1.9c1.4.5 2.8 1.1 4.2 1.6l.8-2c-1.4-.6-2.9-1.1-4.3-1.7l-.7 2.1zm-4.1-1.5c1.1.4 2.2.7 3.2 1.1l.7-2-3.3-1.2-.6 2.1zm-6.3-1.9c1.5.4 2.9.9 4.3 1.3l.7-2c-1.5-.5-2.9-.9-4.4-1.3l-.6 2zm-5.2-1.5c1.5.4 2.9.8 4.4 1.2l.6-2c-1.5-.4-3-.8-4.4-1.2l-.6 2zm-4.3-1c1.1.2 2.2.5 3.3.8l.5-2c-1.1-.3-2.3-.5-3.4-.8l-.4 2zm-6.4-1.3c1.5.3 3 .5 4.5.9l.4-2.1-4.5-.9-.4 2.1zm-5.4-.8c1.5.2 3 .5 4.5.7l.4-2.1c-1.5-.3-3-.5-4.5-.7l-.4 2.1zm-4.2-.6c1.1.1 2.3.3 3.4.4l.3-2.1c-1.2-.2-2.3-.3-3.5-.4l-.2 2.1zm-6.6-.6c1.5.1 3 .2 4.5.4l.2-2.1c-1.5-.2-3.1-.3-4.6-.4l-.1 2.1zm-5.4-.3c1.5.1 3 .1 4.5.2l.1-2.1c-1.5-.1-3.1-.2-4.6-.2v2.1zm-4.6-.1c1.2 0 2.5 0 3.7.1l.1-2.1c-1.2 0-2.5-.1-3.8-.1v2.1zm-6.4-2l.1 2.1c1.3 0 2.5-.1 3.8-.1V2c-1.3 0-2.6.1-3.9.1zm-5.5.3l.1 2.1c1.5-.1 3-.2 4.5-.2V2.1c-1.5.1-3 .2-4.6.3zm-4.8.4l.2 2.1 3.9-.3-.1-2.1c-1.4 0-2.7.1-4 .3zm-6.1.7l.3 2.1c1.3-.2 2.7-.4 4-.5l-.3-2.1c-1.3.1-2.7.3-4 .5zm-5.5.8l.4 2.1c1.5-.3 3-.5 4.5-.7l-.3-2.1c-1.6.2-3.1.5-4.6.7zm-4.8.9l.4 2.1c1.3-.3 2.5-.5 3.8-.7l-.4-2.1c-1.2.2-2.5.5-3.8.7zm-6 1.4l.5 2 3.9-.9-.4-2.1c-1.3.3-2.6.7-4 1zM116.9 8l.6 2c1.4-.4 2.9-.8 4.4-1.2l-.5-2c-1.6.4-3 .8-4.5 1.2zm-4.7 1.4l.7 2c1.2-.4 2.5-.8 3.7-1.1l-.6-2c-1.3.3-2.5.7-3.8 1.1zm-5.8 2l.7 2c1.3-.5 2.6-.9 3.8-1.3l-.7-2c-1.2.4-2.5.8-3.8 1.3zm-5.2 2l.8 2c1.4-.6 2.8-1.1 4.2-1.6l-.7-2c-1.4.4-2.8 1-4.3 1.6zm-4.4 1.8l.9 1.9 3.6-1.5-.8-2c-1.3.6-2.5 1.1-3.7 1.6zm-5.6 2.6l.9 1.9c1.2-.6 2.5-1.2 3.7-1.7l-.9-1.9c-1.2.5-2.5 1.1-3.7 1.7zm-5 2.5l1 1.9c1.3-.7 2.7-1.4 4-2.1l-.9-1.9c-1.3.7-2.7 1.4-4.1 2.1zm-4.1 2.3l1.1 1.8c1.1-.6 2.1-1.2 3.2-1.8l-1-1.9c-1.1.6-2.2 1.3-3.3 1.9zm-5.4 3.2l1.1 1.8c1.1-.7 2.1-1.3 3.2-2l-1-1.8c-1.1.7-2.2 1.4-3.3 2zm-4.6 3l1.2 1.7c1.3-.8 2.5-1.7 3.8-2.5L76 26.2c-1.4.9-2.7 1.8-3.9 2.6zm-4 2.8l1.2 1.7c1-.7 2.1-1.5 3.1-2.2l-1.2-1.7c-1 .7-2 1.4-3.1 2.2zm-5 3.7l1.3 1.7c1.1-.8 2.2-1.7 3.3-2.5l-1.2-1.7c-1.2.8-2.3 1.6-3.4 2.5zm-4.2 3.5l1.4 1.6c1.2-1 2.3-1.9 3.5-2.9l-1.3-1.7c-1.3 1-2.5 2-3.6 3zm-4 3.3l1.4 1.6c1-.9 2.1-1.8 3.2-2.7l-1.4-1.6c-1 .9-2.1 1.8-3.2 2.7zm-4.3 4l1.5 1.5c.9-.9 1.8-1.7 2.8-2.6l-1.4-1.6c-1 .9-1.9 1.8-2.9 2.7zM46.7 50l1.5 1.5 3.2-3.2-1.4-1.5c-1.1 1-2.2 2.1-3.3 3.2zm-3.5 3.8l1.6 1.4c.9-1 1.9-2.1 2.9-3.1l-1.5-1.5c-1.1 1.1-2.1 2.1-3 3.2zm-3.9 4.4l1.6 1.4c.8-1 1.6-1.9 2.5-2.8l-1.6-1.4c-.8.8-1.6 1.8-2.5 2.8zm-3.4 4.2l1.7 1.3c.9-1.2 1.9-2.4 2.8-3.5l-1.6-1.4c-1 1.3-2 2.4-2.9 3.6zm-3.2 4.2l1.7 1.2c.8-1.1 1.7-2.3 2.6-3.4l-1.7-1.3c-.9 1.2-1.8 2.3-2.6 3.5zm-3.4 4.7l1.7 1.2c.7-1 1.4-2 2.1-3.1l-1.7-1.2c-.6 1-1.4 2.1-2.1 3.1zm-3 4.6l1.8 1.1c.8-1.3 1.6-2.5 2.5-3.8L28.9 72c-.9 1.4-1.8 2.6-2.6 3.9zm-2.4 4l1.8 1.1c.6-1.1 1.3-2.1 1.9-3.2l-1.8-1.1c-.6 1.1-1.3 2.2-1.9 3.2zm-3.1 5.6l1.9 1c.6-1.1 1.2-2.2 1.8-3.2l-1.8-1.1c-.7 1.1-1.3 2.2-1.9 3.3zm-2.6 4.9l1.9.9c.7-1.4 1.4-2.7 2.1-4l-1.9-1c-.7 1.3-1.4 2.7-2.1 4.1zM16 95.1l1.9.9 1.8-3.9-1.9-.9-1.8 3.9zm-2.3 5.3l2 .8c.5-1.1.9-2.3 1.4-3.4l-1.9-.8c-.5 1.1-1 2.3-1.5 3.4zm-2 5.2l2 .7c.5-1.4 1.1-2.8 1.6-4.2l-2-.8c-.5 1.4-1.1 2.8-1.6 4.3zm-1.7 4.9l2 .7c.4-1.4.9-2.7 1.4-4l-2-.7c-.5 1.3-1 2.7-1.4 4zM8.3 116l2 .6c.3-1.2.7-2.4 1.1-3.5l-2-.7c-.4 1.2-.8 2.4-1.1 3.6zm-1.5 5.4l2 .5c.4-1.5.8-2.9 1.2-4.4l-2-.6-1.2 4.5zm-1.2 5.1l2.1.4c.3-1.4.6-2.8 1-4.2l-2-.5c-.4 1.5-.8 2.9-1.1 4.3zm-1.1 5.6l2.1.4c.2-1.2.4-2.4.7-3.6l-2.1-.4c-.3 1.2-.5 2.4-.7 3.6zm-.9 5.5l2.1.3c.2-1.5.4-3 .7-4.5l-2.1-.4c-.2 1.6-.4 3.1-.7 4.6zm-.6 5.2l2.1.2c.2-1.4.3-2.8.5-4.3l-2.1-.3c-.2 1.5-.4 3-.5 4.4zm-.5 5.8l2.1.1c.1-1.2.2-2.4.3-3.7l-2.1-.2c-.2 1.3-.3 2.5-.3 3.8zm-.3 5.5l2.1.1c.1-1.5.1-3 .2-4.5l-2.1-.1c-.1 1.4-.2 2.9-.2 4.5zm-.2 4.6h2.1c0-1.2 0-2.5.1-3.7H2.1c0 1.2 0 2.5-.1 3.7zm.1 6.4l2.1-.1c0-1.2-.1-2.5-.1-3.8H2c.1 1.3.1 2.6.1 3.9zm.3 5.5l2.1-.1c-.1-1.5-.2-3-.2-4.5H2.2c0 1.5.1 3.1.2 4.6zm.4 4.9l2.1-.2c-.1-1.3-.2-2.6-.3-4l-2.1.1c.1 1.5.2 2.8.3 4.1zm.7 6.1l2.1-.3c-.2-1.3-.3-2.6-.5-3.9l-2.1.2c.2 1.3.3 2.6.5 4zm.9 5.4l2.1-.4c-.3-1.5-.5-3-.7-4.5l-2.1.3c.2 1.6.4 3.1.7 4.6zm.9 4.9l2.1-.4c-.3-1.3-.5-2.6-.7-3.9l-2.1.4c.1 1.2.4 2.6.7 3.9zm1.3 5.9l2-.5-.9-3.9-2.1.4c.4 1.4.7 2.7 1 4zm1.4 5.3l2-.6c-.4-1.4-.8-2.9-1.2-4.4l-2 .5c.4 1.6.8 3.1 1.2 4.5zm3.5 4.1c-.4-1.3-.8-2.5-1.2-3.8l-2 .6 1.2 3.9 2-.7zm1.9 5.7c-.5-1.2-.9-2.5-1.3-3.7l-2 .7c.4 1.3.9 2.6 1.3 3.8l2-.8zm0 5.9l2-.8c-.6-1.4-1.1-2.8-1.6-4.2l-2 .7c.5 1.4 1 2.9 1.6 4.3zm3.8 3.7c-.5-1.2-1-2.4-1.6-3.7l-2 .8c.5 1.3 1 2.5 1.6 3.7l2-.8zm.6 6.4l1.9-.9c-.6-1.2-1.1-2.4-1.7-3.6l-1.9.9c.6 1.1 1.2 2.4 1.7 3.6zm2.5 4.9l1.9-1c-.7-1.3-1.4-2.7-2.1-4l-1.9.9c.7 1.4 1.4 2.7 2.1 4.1zm2.3 4.1l1.8-1.1c-.6-1.1-1.2-2.2-1.8-3.2l-1.9 1c.7 1.1 1.3 2.2 1.9 3.3zm3.2 5.4l1.8-1.1c-.7-1.1-1.3-2.1-1.9-3.2l-1.8 1.1c.6 1.1 1.3 2.2 1.9 3.2zm3 4.7l1.7-1.2c-.8-1.3-1.7-2.5-2.5-3.8l-1.8 1.1c1 1.3 1.8 2.6 2.6 3.9zm2.9 4l1.7-1.2c-.8-1.1-1.5-2.2-2.3-3.3l-1.7 1.2c.7 1.1 1.5 2.2 2.3 3.3zm3.6 4.9l1.7-1.3c-.8-1-1.6-2.1-2.4-3.2l-1.7 1.2c.8 1.2 1.6 2.2 2.4 3.3zm3.5 4.3l1.6-1.4c-1-1.2-1.9-2.3-2.9-3.5l-1.7 1.3 3 3.6zm3.4 4l1.6-1.4c-1-1.1-1.9-2.2-2.8-3.3l-1.6 1.4c.9 1.1 1.9 2.2 2.8 3.3zm3.9 4.2l1.5-1.5c-.8-.9-1.7-1.8-2.5-2.6l-1.6 1.4c.9.9 1.8 1.8 2.6 2.7zm3.9 3.9l1.5-1.5-3.2-3.2-1.5 1.5 3.2 3.2zm5.3 2.1c-1.1-1-2.1-2-3.2-3l-1.5 1.5c1.1 1 2.1 2 3.2 3l1.5-1.5zm2.9 5.3l1.4-1.6-2.7-2.4-1.4 1.6c.8.8 1.7 1.6 2.7 2.4zm4.3 3.5l1.3-1.7c-1.2-.9-2.4-1.9-3.5-2.8l-1.4 1.6c1.2 1 2.4 1.9 3.6 2.9zm5.5 1.5c-1.2-.9-2.3-1.8-3.5-2.7l-1.3 1.7 3.6 2.7 1.2-1.7zm3.3 5l1.2-1.7c-1-.7-2-1.3-2.9-2l-1.2 1.7c.9.6 1.9 1.3 2.9 2zm4.7 3l1.1-1.8c-1.3-.8-2.5-1.6-3.8-2.5l-1.2 1.7c1.3 1 2.6 1.8 3.9 2.6zm5 .6c-1.1-.6-2.1-1.3-3.2-1.9l-1.1 1.8c1.1.7 2.2 1.3 3.2 2l1.1-1.9zm4.5 5l1-1.9c-1-.6-2.1-1.1-3.1-1.7l-1.1 1.8c1.1.6 2.1 1.2 3.2 1.8zm4.9 2.5l.9-1.9c-1.4-.7-2.7-1.4-4-2.1l-1 1.9c1.3.7 2.7 1.4 4.1 2.1zm5.7.4c-1.4-.6-2.7-1.2-4-1.9l-.9 1.9c1.4.7 2.7 1.3 4.1 1.9l.8-1.9zm5.1 2.2c-1.1-.4-2.2-.9-3.2-1.4l-.9 1.9c1.1.5 2.2.9 3.3 1.4l.8-1.9zm5.1 1.9c-1.4-.5-2.8-1.1-4.2-1.6l-.8 2c1.4.6 2.9 1.1 4.3 1.7l.7-2.1zm5.1 1.8l-4.2-1.5-.7 2c1.4.5 2.8 1 4.3 1.5l.6-2zm5.2 1.7c-1.1-.3-2.2-.7-3.3-1l-.7 2c1.1.4 2.3.7 3.4 1l.6-2zm5.3 1.4c-1.5-.4-2.9-.8-4.4-1.2l-.6 2c1.5.4 3 .8 4.4 1.2l.6-2zm5.2 1.2c-1.5-.3-2.9-.7-4.4-1l-.5 2c1.5.4 2.9.7 4.4 1l.5-2zm5.4 1.1c-1.1-.2-2.3-.4-3.4-.6l-.4 2.1c1.2.2 2.3.5 3.5.7l.3-2.2zm5.4.8c-1.5-.2-3-.4-4.5-.7l-.4 2.1c1.5.3 3 .5 4.5.7l.4-2.1zm5.3.7c-1.5-.2-3-.3-4.4-.6l-.3 2.1 4.5.6.2-2.1zm5.5.5c-1.2-.1-2.3-.2-3.5-.3l-.2 2.1c1.2.1 2.3.2 3.5.3l.2-2.1zm5.4.3c-1.5-.1-3-.1-4.5-.2l-.1 2.1c1.5.1 3.1.2 4.6.2v-2.1zm4.7.1c-1.2 0-2.5 0-3.7-.1l-.1 2.1c1.3 0 2.5.1 3.8.1v-2.1zm6.3 2l-.1-2.1c-1.2 0-2.5.1-3.7.1v2.1c1.3 0 2.5 0 3.8-.1zm5.5-.2l-.1-2.1c-1.5.1-3 .2-4.5.2l.1 2.1c1.4-.1 3-.1 4.5-.2zm5-.4l-.2-2.1c-1.3.1-2.7.2-4 .3l.1 2.1c1.4-.1 2.7-.2 4.1-.3zm6-.8l-.3-2.1c-1.3.2-2.6.3-3.9.5l.2 2.1c1.3-.1 2.7-.3 4-.5zm5.4-.8l-.4-2.1c-1.5.3-3 .5-4.5.7l.3 2.1c1.6-.2 3.1-.4 4.6-.7zm5-.9l-.4-2.1c-1.3.3-2.6.5-4 .8l.4 2.1c1.3-.3 2.6-.5 4-.8zm5.8-1.4l-.5-2c-1.3.3-2.5.6-3.8.9l.4 2.1c1.3-.3 2.6-.6 3.9-1zm5.4-1.4l-.6-2c-1.4.4-2.9.8-4.4 1.2l.5 2 4.5-1.2zm4.8-1.4l-.7-2-3.9 1.2.6 2c1.4-.4 2.7-.8 4-1.2zm5.7-2l-.7-2c-1.2.4-2.5.9-3.7 1.3l.7 2c1.2-.4 2.4-.8 3.7-1.3zm5.1-1.9l-.8-2c-1.4.6-2.8 1.1-4.2 1.6l.7 2c1.5-.5 2.9-1.1 4.3-1.6zm4.7-2l-.9-1.9c-1.2.5-2.5 1.1-3.7 1.6l.8 2c1.2-.6 2.5-1.1 3.8-1.7zm5.4-2.5l-.9-1.9c-1.2.6-2.3 1.1-3.5 1.7l.9 1.9c1.1-.5 2.3-1.1 3.5-1.7zm4.9-2.5l-1-1.9c-1.3.7-2.7 1.4-4 2.1l.9 1.9c1.4-.7 2.8-1.4 4.1-2.1zm4.1-2.3l-1.1-1.8-3.3 1.8 1 1.9c1.2-.6 2.3-1.2 3.4-1.9zm3.3-6.6l-3.6-5.8.8-.5 3.6 5.7c1.3-.8 2.5-1.6 3.7-2.4l-3.8-5.6.8-.5 3.8 5.6c1.1-.8 2.2-1.5 3.3-2.3l-7.1-9.7 1.6-1.2 7.1 9.7c1-.8 2-1.5 3-2.3l-4.2-5.3.7-.6 4.2 5.3c1.2-.9 2.3-1.9 3.5-2.8l-4.3-5.2.7-.6 4.3 5.2c.9-.8 1.9-1.6 2.8-2.4l-7.8-8.6 1.5-1.4 7.8 8.7c1-.9 2-1.9 3-2.8l-4.7-4.9.7-.6 4.7 4.9c1.1-1 2.1-2.1 3.2-3.2l-4.9-4.7.6-.7 4.9 4.7c.8-.9 1.7-1.8 2.5-2.7l-8.7-7.8 1.4-1.5 8.7 7.8c.9-1 1.8-2.1 2.7-3.1l-5.2-4.3.6-.7 5.2 4.3c1-1.1 1.9-2.3 2.8-3.5l-5.3-4.2.6-.7 5.3 4.2c.7-1 1.5-1.9 2.2-2.9l-9.5-6.9 1.2-1.6 9.5 6.9c.8-1.1 1.6-2.3 2.4-3.4l-5.6-3.8.5-.8 5.6 3.8c.8-1.2 1.6-2.5 2.4-3.7l-5.8-3.6.5-.8 5.8 3.6c.6-1 1.3-2.1 1.9-3.1l-10.2-5.9-4.7-2.7 1.3-2.2 14.9 8.6c.6-1.1 1.2-2.1 1.8-3.2l-6-3.2.4-.8 6 3.2c.7-1.3 1.4-2.6 2-4l-6.1-3 .4-.8 6.1 3 1.5-3.3-10.8-4.8.8-1.8L301 222c.6-1.3 1.1-2.6 1.6-3.9l-6.3-2.6.3-.8 6.3 2.6c.6-1.4 1.1-2.8 1.6-4.2l-6.4-2.3.3-.9 6.4 2.3c.4-1.1.8-2.3 1.2-3.4l-11.3-3.7.6-1.9 11.3 3.7c.4-1.3.8-2.7 1.2-4.1l-6.6-1.9.3-.9 6.6 1.9c.4-1.4.8-2.9 1.2-4.3l-6.6-1.7.2-.9 6.7 1.7c.3-1.2.6-2.3.8-3.5l-11.6-2.5.4-2 11.6 2.5c.3-1.4.5-2.8.8-4.2l-6.7-1.2.2-.9 6.7 1.2c.3-1.5.5-2.9.7-4.4l-6.8-1 .1-.9 6.8 1c.2-1.2.3-2.4.4-3.5l-11.8-1.2.2-2 11.9 1.2c.1-1.4.3-2.8.4-4.2l-6.8-.5.1-.9 6.8.5c.1-1.5.2-3 .2-4.5l-6.8-.2v-.9l6.8.2c0-1.2.1-2.4.1-3.6h-17.2v-2.5h17.2c0-1.2 0-2.5-.1-3.7l-6.8.2v-.9l6.8-.2c-.1-1.5-.1-3-.2-4.5l-6.8.5-.1-.9 6.8-.5c-.1-1.3-.2-2.6-.3-3.8l-11.9 1.2-.2-2 11.9-1.2c-.1-1.3-.3-2.6-.5-3.9l-6.8 1-.1-.9 6.8-1c-.2-1.5-.4-2.9-.7-4.4l-6.7 1.2-.2-.9 6.8-1.2c-.2-1.3-.5-2.5-.7-3.8l-11.7 2.5-.4-2 11.7-2.5-.9-3.9-6.6 1.7-.2-.9 6.6-1.7c-.4-1.4-.7-2.9-1.2-4.3l-6.6 1.9-.3-.9 6.6-1.9c-.4-1.2-.7-2.5-1.1-3.7l-11.4 3.7-.6-1.9 11.4-3.7c-.4-1.3-.9-2.5-1.3-3.8l-6.4 2.3-.3-.9 6.4-2.3c-.5-1.4-1.1-2.8-1.6-4.2l-6.3 2.6-.3-.8 6.3-2.6c-.5-1.2-1-2.4-1.5-3.5l-10.9 4.9-.8-1.8 10.9-4.9c-.5-1.2-1.1-2.4-1.7-3.6l-6.1 3-.4-.8 6.1-3c-.7-1.3-1.3-2.7-2-4l-6 3.2-.4-.8 6-3.2c-.6-1.1-1.2-2.1-1.8-3.2l-14.9 8.6-1.3-2.2 14.8-8.6c-.6-1.1-1.3-2.1-1.9-3.2l-5.8 3.6-.5-.8 5.8-3.6c-.8-1.3-1.6-2.5-2.4-3.7l-5.6 3.8-.5-.8 5.6-3.8c-.7-1.1-1.4-2.1-2.2-3.1l-9.6 7-1.2-1.6 9.6-7c-.8-1.1-1.6-2.1-2.4-3.2l-5.3 4.2-.6-.7 5.3-4.2c-.9-1.2-1.9-2.3-2.8-3.5l-5.2 4.3-.6-.7 5.2-4.3c-.8-.9-1.5-1.8-2.3-2.6l-8.6 7.7-1.4-1.5 8.6-7.7c-1-1.1-2-2.1-3-3.2l-4.9 4.7-.6-.7 4.9-4.7c-1-1.1-2.1-2.1-3.2-3.2l-4.7 4.9-.7-.6 4.7-4.9c-.8-.8-1.7-1.6-2.5-2.4l-7.7 8.6-1.5-1.4 7.7-8.6c-1.1-1-2.2-1.9-3.3-2.9l-4.3 5.2-.7-.6 4.3-5.2c-1.1-1-2.3-1.9-3.5-2.8l-4.2 5.3-.7-.6 4.2-5.3-2.7-2.1-6.8 9.4-1.6-1.2 6.8-9.4c-1.2-.9-2.4-1.7-3.6-2.5l-3.8 5.6-.8-.5 3.8-5.6c-1.2-.8-2.5-1.6-3.7-2.4l-3.6 5.8-.8-.5 3.6-5.8c-1-.6-1.9-1.2-2.9-1.8l-5.9 10.1-.2-.1-2.7 4.7-2.2-1.3 8.6-14.9c-1.1-.6-2.2-1.2-3.2-1.8l-3.2 6-.8-.4 3.2-6c-1.3-.7-2.6-1.4-4-2l-3 6.1-.8-.4 3-6.1c-1-.5-2-1-3.1-1.4l-4.8 10.8-1.8-.8 4.8-10.8c-1.4-.6-2.7-1.2-4.1-1.7l-2.6 6.3-.8-.3 2.6-6.3c-1.4-.6-2.8-1.1-4.2-1.6l-2.3 6.4-.9-.3 2.3-6.4c-1.1-.4-2.1-.8-3.2-1.1L205.3 25l-1.9-.6 3.7-11.3c-1.4-.5-2.8-.9-4.3-1.3l-1.9 6.6-.9-.3 1.9-6.6c-1.4-.4-2.9-.8-4.3-1.2l-1.7 6.6-.9-.2 1.7-6.6c-1.1-.3-2.2-.5-3.3-.8L190.9 21l-2-.4 2.5-11.7c-1.5-.3-2.9-.6-4.4-.8l-1.2 6.7-.9-.2 1.2-6.7c-1.5-.3-2.9-.5-4.4-.7l-.9 6.8-.9-.1 1-6.8c-1.1-.2-2.2-.3-3.3-.4l-1.3 11.9-2-.2 1.3-11.9c-1.5-.1-3-.3-4.5-.4l-.5 6.8-.9-.1.5-6.8c-1.5-.1-3-.2-4.5-.2l-.2 6.8h-.9l.2-6.8c-1.2 0-2.4-.1-3.6-.1v17.2h-2.5V6.1c-1.2 0-2.5 0-3.7.1l.2 6.8h-.9l-.2-6.8c-1.5.1-3 .1-4.5.2l.5 6.8-.9.1-.5-6.8c-1.3.1-2.6.2-3.8.3l1.2 11.7-2 .2L143 7c-1.3.1-2.6.3-3.9.5l.9 6.8-.9.1-.9-6.8c-1.5.2-2.9.4-4.4.7L135 15l-.9.2-1.2-6.7c-1.3.2-2.5.5-3.8.7l2.5 11.6-2 .4-2.5-11.6-3.9.9 1.7 6.6-.9.2-1.6-6.6c-1.4.4-2.9.7-4.3 1.2l1.9 6.6-.9.3-1.9-6.6c-1.2.4-2.4.7-3.7 1.1l3.7 11.2-1.9.6-3.7-11.2c-1.3.4-2.5.9-3.8 1.3l2.3 6.4-.9.3-2.3-6.4c-1.4.5-2.8 1.1-4.2 1.6l2.5 6.3-.8.3-2.5-6.3c-1.2.5-2.3 1-3.5 1.5l4.8 10.8-1.8.8-4.8-10.8c-1.2.6-2.4 1.1-3.6 1.7l3 6.1-.9.5-3-6.1c-1.3.7-2.7 1.3-4 2l3.2 6-.8.4-3.2-6c-1.1.6-2.1 1.2-3.2 1.8l8.6 14.8-2.2 1.3L82 27.3c-1.1.6-2.1 1.3-3.2 1.9l3.6 5.7-.8.5-3.6-5.7c-1.3.8-2.5 1.6-3.7 2.4l3.8 5.6-.8.5-3.8-5.6c-1 .7-2.1 1.4-3.1 2.2l6.9 9.5-1.6 1.2-6.9-9.5c-1.1.8-2.2 1.6-3.2 2.4l4.1 5.3-.7.6-4.1-5.3c-1.2.9-2.3 1.9-3.5 2.8l4.3 5.2-.7.6-4.3-5.2c-1 .9-2.1 1.8-3.1 2.7l8.1 9-1.5 1.4-8.1-9c-.9.8-1.8 1.7-2.7 2.5l4.7 4.8-.7.6-4.7-4.8c-1.1 1-2.1 2.1-3.2 3.2l4.8 4.7-.6.7-4.7-4.7c-1 1-1.9 2-2.8 3l9 8.1-1.4 1.5-9-8.1c-.8.9-1.6 1.8-2.4 2.8l5.2 4.3-.6.7-5.2-4.3c-1 1.1-1.9 2.3-2.8 3.5l5.3 4.1-.6.7-5.3-4.1c-.8 1.1-1.7 2.2-2.5 3.3l9.8 7.1-1.2 1.6-9.8-7.1-2.1 3 5.6 3.8-.5.8-5.6-3.8c-.8 1.2-1.6 2.5-2.4 3.7l5.7 3.6-.4.7-5.7-3.6c-.6 1-1.3 2.1-1.9 3.1l14.8 8.6-1.2 2.2-4.4-2.5-10.5-6c-.6 1.1-1.2 2.1-1.8 3.2l6 3.2-.4.8-6-3.2c-.7 1.3-1.4 2.6-2 4l6.1 3-.4.8-6.1-3c-.6 1.3-1.2 2.5-1.8 3.8l11.1 4.9-.8 1.8-11-4.9c-.5 1.1-1 2.2-1.4 3.3l6.3 2.5-.3.8-6.3-2.5c-.6 1.4-1.1 2.8-1.6 4.2l6.4 2.3-.3.9-6.4-2.3c-.5 1.3-.9 2.6-1.4 4l11.5 3.7-.6 1.9-11.5-3.7c-.4 1.1-.7 2.3-1 3.5l6.6 1.9-.3.9-6.5-1.9c-.4 1.4-.8 2.9-1.2 4.3l6.6 1.6-.2.9-6.6-1.6c-.3 1.4-.7 2.7-1 4.1l11.8 2.5-.4 2-11.8-2.5c-.2 1.2-.5 2.4-.7 3.5l6.7 1.2-.2.9-6.7-1.2c-.3 1.5-.5 2.9-.7 4.4l6.7.9-.1.9-6.7-.9c-.2 1.4-.4 2.8-.5 4.2l11.9 1.3-.2 2L7 145.3l-.3 3.6 6.8.5-.1.9-6.8-.5c-.1 1.5-.2 3-.2 4.5l6.8.2v.9l-6.8-.2c0 1.2-.1 2.4-.1 3.6h17.2v2.5H6.3c0 1.2 0 2.5.1 3.7l6.8-.2v.9l-6.8.2c.1 1.5.1 3 .2 4.5l6.8-.5.1.9-6.8.5.3 3.9 11.9-1.2.2 2L7 177.1c.1 1.3.3 2.6.5 3.9l6.7-.9.1.9-6.7.9c.2 1.5.4 2.9.7 4.4l6.7-1.2.2.9-6.7 1.2c.2 1.3.5 2.6.7 3.8l11.7-2.5.4 2L9.7 193c.3 1.3.6 2.5.9 3.8l6.6-1.6.2.9-6.6 1.6c.4 1.4.7 2.9 1.2 4.3l6.5-1.9.3.9-6.5 1.9c.4 1.3.7 2.5 1.1 3.7l11.4-3.7.6 1.9-11.4 3.7c.4 1.2.8 2.5 1.3 3.7l6.4-2.3.3.9-6.4 2.3c.5 1.4 1.1 2.8 1.6 4.2l6.3-2.5.3.8-6.3 2.5 1.5 3.6 10.9-4.9.8 1.8-10.9 4.9c.5 1.2 1.1 2.4 1.7 3.5l6.1-3 .4.8-6.1 3c.7 1.3 1.3 2.7 2 4l6-3.2.4.8-6 3.2c.6 1.1 1.2 2.1 1.8 3.2l14.8-8.6 1.3 2.2-14.8 8.6c.6 1.1 1.3 2.1 1.9 3.1l5.7-3.6.5.8-5.7 3.6c.8 1.3 1.6 2.5 2.4 3.7l5.6-3.8.5.8-5.6 3.8c.7 1.1 1.5 2.1 2.2 3.2l9.6-7 1.2 1.6-9.6 7c.8 1 1.6 2.1 2.4 3.1l5.3-4.1.6.7-5.3 4.1c.9 1.2 1.9 2.3 2.8 3.5l5.2-4.3.6.7-5.2 4.3c.9 1.1 1.8 2.2 2.8 3.2l9.1-8.2 1.4 1.5-9.1 8.2c.8.9 1.6 1.7 2.4 2.6l4.8-4.7.6.7-4.8 4.7c1 1.1 2.1 2.1 3.2 3.2l4.7-4.8.7.6-4.7 4.8c1 1 2.1 2 3.1 2.9l8.2-9.1 1.5 1.4-8.2 9.1c.9.8 1.8 1.5 2.7 2.3l4.3-5.2.7.6-4.3 5.2c1.1 1 2.3 1.9 3.5 2.8l4.1-5.3.7.6-4.1 5.3c1.1.9 2.3 1.8 3.4 2.6l7.2-9.9 1.6 1.2-7.2 9.9c.9.7 1.9 1.3 2.9 2l3.8-5.6.8.5-3.8 5.6c1.2.8 2.5 1.6 3.7 2.4l3.6-5.7.8.5-3.6 5.7c1 .6 2.1 1.3 3.1 1.9l8.6-14.8 2.2 1.3-2.5 4.3.2.1-6.3 10.4c1 .6 2 1.1 3 1.7l3.2-6 .8.4-3.2 6c1.3.7 2.6 1.4 4 2l3-6.1.8.4-3 6.1c1.3.6 2.6 1.3 4 1.9l4.9-11.1 1.8.8-4.9 11.1c1.1.5 2.1.9 3.2 1.3l2.6-6.3.8.3-2.5 6.3c1.4.6 2.8 1.1 4.2 1.6l2.3-6.4.9.3-2.3 6.4c1.4.5 2.8 1 4.1 1.4l3.7-11.5 1.9.6-3.7 11.5c1.1.3 2.2.7 3.3 1l1.9-6.6.9.3-1.9 6.6c1.4.4 2.9.8 4.3 1.1l1.6-6.6.9.2-1.7 6.6c1.4.3 2.9.7 4.3 1l2.5-11.8 2 .4-2.5 11.8c1.1.2 2.2.4 3.4.6l1.2-6.7.9.2-1.2 6.7c1.5.3 2.9.5 4.4.7l.9-6.8.9.1-.9 6.8c1.5.2 2.9.4 4.4.5l1.3-11.9 2 .2-1.3 11.9c1.1.1 2.3.2 3.4.3l.5-6.8.9.1-.5 6.8c1.5.1 3 .2 4.5.2l.2-6.8h.9l-.2 6.8c1.2 0 2.4.1 3.7.1v-17.2h2.5V314c1.2 0 2.4 0 3.7-.1l-.2-6.8h.9l.2 6.8c1.5-.1 3-.1 4.5-.2l-.5-6.8.9-.1.5 6.8 3.9-.3-1.3-12.1 2-.2 1.3 12.1c1.3-.1 2.6-.3 3.9-.5l-1-6.8.9-.1.9 6.8c1.5-.2 2.9-.4 4.4-.7l-1.2-6.7.9-.2 1.2 6.7c1.3-.2 2.6-.5 3.9-.7l-2.5-11.9 2-.4 2.5 11.9c1.3-.3 2.5-.6 3.8-.9l-1.7-6.6.9-.2 1.7 6.6c1.4-.4 2.9-.7 4.3-1.2l-1.9-6.6.9-.3 1.9 6.6c1.3-.4 2.5-.8 3.8-1.2l-3.8-11.6 1.9-.6 3.8 11.6c1.2-.4 2.4-.8 3.6-1.3l-2.3-6.4.9-.3 2.3 6.4c1.4-.5 2.8-1.1 4.2-1.6l-2.6-6.3.8-.3 2.6 6.3c1.2-.5 2.5-1 3.7-1.6l-4.9-11.1 1.8-.8 4.9 11.1c1.2-.5 2.3-1.1 3.5-1.6l-3-6.1.8-.4 3 6.1c1.3-.7 2.7-1.3 4-2l-3.2-6 .8-.4 3.2 6c1.1-.6 2.1-1.2 3.2-1.8l-8.6-14.9 2.2-1.3 8.6 14.8c.8-.5 1.9-1.2 2.9-1.8zm2.2 3.4l-1.1-1.8c-1.1.7-2.1 1.3-3.2 1.9l1.1 1.8c1-.6 2.1-1.2 3.2-1.9zm4.6-3l-1.2-1.7c-1.3.8-2.5 1.7-3.8 2.5l1.1 1.8c1.3-.9 2.6-1.7 3.9-2.6zm4.2-2.9l-1.2-1.7c-1.1.8-2.2 1.6-3.4 2.3l1.2 1.7c1.1-.7 2.2-1.5 3.4-2.3zm4.7-3.6l-1.3-1.7c-1 .8-2 1.6-3.1 2.3l1.2 1.7c1.1-.7 2.2-1.5 3.2-2.3zm4.3-3.4l-1.4-1.6c-1.2 1-2.3 1.9-3.5 2.9l1.3 1.7c1.2-1.1 2.4-2 3.6-3zm3.6-3.1l-1.4-1.6c-.9.8-1.9 1.7-2.8 2.5l1.4 1.6c.9-.8 1.9-1.7 2.8-2.5zm4.6-4.3l-1.5-1.5c-1 1-2 1.9-3.1 2.9l1.4 1.6c1.2-1 2.2-2 3.2-3zm3.9-3.9l-1.5-1.5-3.2 3.2 1.5 1.5c1.1-1 2.2-2.1 3.2-3.2zm3.3-3.4l-1.6-1.4c-.8.9-1.7 1.8-2.6 2.7l1.5 1.5c.9-.9 1.8-1.9 2.7-2.8zm4.1-4.7l-1.6-1.4c-.9 1.1-1.8 2.1-2.8 3.2l1.6 1.4c1-1.1 1.9-2.1 2.8-3.2zm3.5-4.3l-1.7-1.3c-.9 1.2-1.9 2.4-2.9 3.5l1.6 1.4c1.1-1.2 2.1-2.4 3-3.6zm2.9-3.7l-1.7-1.2c-.7 1-1.5 2-2.2 3l1.7 1.3c.7-1.1 1.4-2.1 2.2-3.1zm3.6-5.2l-1.7-1.2c-.8 1.2-1.6 2.3-2.4 3.5l1.7 1.2c.8-1.1 1.6-2.3 2.4-3.5zm3.1-4.6L292 243c-.8 1.3-1.6 2.5-2.5 3.8l1.7 1.2c.9-1.3 1.7-2.6 2.6-3.9zm2.4-4l-1.8-1.1c-.6 1.1-1.3 2.1-1.9 3.2l1.8 1.1c.6-1 1.3-2.1 1.9-3.2zm3.1-5.5l-1.9-1-1.8 3.3 1.8 1.1c.7-1.2 1.3-2.3 1.9-3.4zm2.5-4.9l-1.9-.9c-.7 1.4-1.4 2.7-2.1 4l1.9 1c.8-1.4 1.5-2.8 2.1-4.1zm2-4.2l-1.9-.9c-.5 1.1-1 2.2-1.6 3.3l1.9.9c.6-1.1 1.1-2.2 1.6-3.3zm2.6-5.9l-2-.8c-.5 1.3-1.1 2.6-1.7 3.9l1.9.9c.7-1.3 1.2-2.6 1.8-4zm2-5.1l-2-.7c-.5 1.4-1.1 2.8-1.6 4.2l2 .8c.5-1.5 1-2.9 1.6-4.3zm1.5-4.4l-2-.7c-.4 1.2-.8 2.3-1.2 3.4l2 .7c.4-1.1.8-2.2 1.2-3.4zm1.9-6.1l-2-.6c-.4 1.4-.8 2.8-1.2 4.1l2 .7 1.2-4.2zm1.5-5.3l-2-.5c-.4 1.5-.8 2.9-1.2 4.4l2 .6c.4-1.6.8-3 1.2-4.5zm1-4.5l-2.1-.4c-.3 1.2-.5 2.4-.8 3.5l2 .5c.4-1.2.7-2.4.9-3.6zm1.3-6.3l-2.1-.4c-.3 1.4-.5 2.8-.8 4.2l2.1.4c.3-1.3.5-2.8.8-4.2zm.9-5.5l-2.1-.3c-.2 1.5-.4 3-.7 4.5l2.1.4c.2-1.5.4-3 .7-4.6zm.5-4.5l-2.1-.2c-.1 1.2-.3 2.4-.4 3.6l2.1.3c.1-1.3.3-2.5.4-3.7zm.6-6.4l-2.1-.1c-.1 1.4-.2 2.9-.4 4.3l2.1.2c.2-1.5.3-3 .4-4.4zm.3-5.5l-2.1-.1c-.1 1.5-.1 3-.2 4.5l2.1.1c.1-1.5.2-3 .2-4.5zm.1-4.7h-2.1c0 1.2 0 2.5-.1 3.7l2.1.1c.1-1.3.1-2.6.1-3.8zm0-2.5c0-1.3 0-2.6-.1-3.8l-2.1.1c0 1.2.1 2.5.1 3.8l2.1-.1z"/></svg>