<svg xmlns="http://www.w3.org/2000/svg" viewBox="0 0 320 320"><path d="M163 160c0-1.6-1.3-3-2.9-3-1.6 0-2.9 1.3-2.9 3s1.3 3 2.9 3c1.6 0 2.9-1.3 2.9-3zm-3 5.7c-3.1 0-5.6-2.6-5.6-5.7s2.5-5.7 5.6-5.7 5.6 2.6 5.6 5.7-2.5 5.7-5.6 5.7zm0-1c2.5 0 4.6-2.1 4.6-4.7s-2.1-4.7-4.6-4.7c-2.5 0-4.6 2.1-4.6 4.7s2 4.7 4.6 4.7z"/><path d="M156.6 156l-5.8-12.9L160 50l9.2 93.2-5.8 12.9c-2.4-1.8-4.4-1.8-6.8-.1zm6.1 8.6l9.2 20.9c.1.2.1.4-.1.5l-11.3 14.1c-.2.3-.6.3-.8 0L148.4 186c-.1-.1-.1-.4-.1-.5l8.4-20.8c.1-.3.5-.4.8-.2 1.5 1.2 2.8 1.2 4.3 0 .4-.3.8-.2.9.1z"/></svg>