<svg id="minutes" xmlns="http://www.w3.org/2000/svg" viewBox="0 0 320 320"><style>.st0{fill:none}</style><path class="st0" d="M164.6 160c0-2.6-2.1-4.7-4.6-4.7-2.5 0-4.6 2.1-4.6 4.7s2.1 4.7 4.6 4.7c2.5 0 4.6-2.1 4.6-4.7zm-7.4 0c0-1.6 1.3-3 2.9-3 1.6 0 2.9 1.3 2.9 3 0 1.6-1.3 3-2.9 3-1.6 0-2.9-1.3-2.9-3z"/><path d="M161.9 165.4c2.2-.8 3.7-2.9 3.7-5.4 0-2.5-1.6-4.6-3.8-5.4l3.4-11.5L160 24l-5.3 119.1 3.4 11.5c-2.2.8-3.8 2.9-3.8 5.4 0 2.4 1.5 4.5 3.6 5.4l-7.4 35.3 9.5 11.1 10.2-11.1-8.3-35.3zm-6.5-5.4c0-2.6 2.1-4.7 4.6-4.7 2.5 0 4.6 2.1 4.6 4.7s-2.1 4.7-4.6 4.7c-2.6 0-4.6-2.1-4.6-4.7z"/><ellipse cx="160.1" cy="160" rx="2.9" ry="3"/></svg>