<svg id="seconds" xmlns="http://www.w3.org/2000/svg" viewBox="0 0 320 320"><style>.st0{fill:none}</style><path class="st0" d="M160 155.3c-2.5 0-4.6 2.1-4.6 4.7s2.1 4.7 4.6 4.7c2.5 0 4.6-2.1 4.6-4.7s-2.1-4.7-4.6-4.7zm.1 7.7c-1.6 0-2.9-1.3-2.9-3 0-1.6 1.3-3 2.9-3 1.6 0 2.9 1.3 2.9 3s-1.3 3-2.9 3z"/><path d="M161.2 154.4l.1-146.6h-2.5v146.6c-2.5.6-4.4 2.9-4.4 5.6s1.9 5 4.4 5.6v65.8l2.4-.2v-65.7c2.5-.6 4.5-2.9 4.5-5.6-.1-2.7-2-5-4.5-5.5zm-1.2 10.3c-2.5 0-4.6-2.1-4.6-4.7s2.1-4.7 4.6-4.7c2.5 0 4.6 2.1 4.6 4.7s-2.1 4.7-4.6 4.7z"/><ellipse cx="160.1" cy="160" rx="2.9" ry="3"/></svg>